<svg width="916" height="877" viewBox="0 0 916 877" fill="none" xmlns="http://www.w3.org/2000/svg">
<path d="M83.9207 642.602L85.0579 642.06C85.8331 643.684 86.4951 644.654 87.0439 644.968C87.5394 645.263 88.0457 644.977 88.5626 644.11L109.684 607.705C110.35 606.501 110.76 605.596 110.915 604.991C111.069 604.385 111.01 603.704 110.738 602.948L111.875 602.405C112.183 603.144 112.647 604.209 113.265 605.598C113.848 607.004 114.492 608.447 115.198 609.927C115.973 611.552 116.802 613.195 117.684 614.857C118.512 616.501 119.143 617.729 119.575 618.542L118.438 619.085C117.645 617.424 117.029 616.411 116.588 616.045C116.094 615.66 115.589 615.901 115.072 616.768L93.7601 653.331C93.0405 654.516 92.6036 655.412 92.4493 656.017C92.295 656.623 92.3806 657.313 92.7063 658.088L91.5691 658.631C91.2435 657.856 90.7722 656.729 90.1554 655.25C89.4852 653.753 88.797 652.264 88.0907 650.784C87.3155 649.159 86.5568 647.616 85.8144 646.153C85.0187 644.671 84.3875 643.487 83.9207 642.602ZM102.803 632.994C102.803 632.994 103.004 632.809 103.404 632.441C103.805 632.073 104.005 631.889 104.005 631.889L114.007 633.764C116.646 634.278 118.694 634.297 120.152 633.823C121.574 633.366 122.474 632.56 122.853 631.404C123.179 630.229 123.017 628.822 122.368 627.182L123.451 626.665C123.742 627.368 124.155 628.279 124.689 629.398C125.186 630.535 125.694 631.644 126.211 632.727C126.691 633.828 127.078 634.685 127.371 635.298C128.404 637.464 129.251 639.099 129.911 640.203L128.828 640.719C127.791 639.663 126.422 638.743 124.719 637.96C122.979 637.194 120.898 636.548 118.474 636.02L102.803 632.994ZM74.6986 623.136L75.7816 622.619C76.675 623.656 77.9294 624.52 79.5448 625.211C81.1429 625.867 82.8691 626.373 84.7232 626.729L100.606 629.92C100.606 629.92 100.406 630.105 100.005 630.473C99.5876 630.805 99.3788 630.971 99.3788 630.971L89.1903 628.985C85.5731 628.185 83.1372 628.328 81.8827 629.414C80.6281 630.5 80.4721 632.17 81.4146 634.424L80.3316 634.941C79.8681 633.877 79.3444 632.686 78.7603 631.37C78.1763 630.053 77.6689 628.943 77.2383 628.041C76.2047 625.874 75.3582 624.24 74.6986 623.136Z" fill="#006B2D"/>
<path d="M57.4074 574.928L58.5447 574.545C59.1288 575.276 60.0731 575.887 61.3776 576.376C62.682 576.865 64.5239 577.321 66.9033 577.744L95.9838 581.75L96.7086 582.962L73.8695 608.573C72.8612 609.715 72.2128 610.672 71.9243 611.444C71.6358 612.217 71.5495 612.9 71.6652 613.494L70.528 613.877C70.3871 613.334 70.1888 612.62 69.933 611.735C69.6265 610.825 69.3263 609.871 69.0322 608.873C68.7002 607.887 68.4065 607.015 68.1511 606.257C67.8574 605.385 67.519 604.381 67.1359 603.244C66.7022 602.081 66.3001 600.951 65.9298 599.851C65.5216 598.765 65.19 597.906 64.935 597.274L66.0722 596.891C66.5056 597.927 67.134 598.665 67.9576 599.105C68.7685 599.507 69.9116 599.016 71.3872 597.633L86.2671 581.098L90.7675 582.241L72.2602 579.738C69.0584 579.255 66.6677 579.237 65.0879 579.685C63.5082 580.133 62.543 580.901 62.1923 581.99C61.8415 583.079 61.909 584.407 62.3946 585.974L61.2574 586.357C60.8612 585.055 60.4904 583.829 60.1453 582.679C59.8001 581.529 59.436 580.386 59.0529 579.249C58.7592 578.377 58.4721 577.587 58.1916 576.88C57.8983 576.134 57.6369 575.484 57.4074 574.928ZM93.1024 582.594L93.1934 581.36L99.4954 582.213C100.647 582.374 101.571 582.548 102.267 582.736C102.964 582.923 103.59 583.155 104.148 583.432C104.959 583.834 105.625 584.433 106.146 585.228C106.692 585.972 107.112 586.781 107.406 587.652C108.057 589.586 108.119 591.274 107.593 592.718C107.066 594.161 106.139 595.107 104.812 595.554C103.448 596.013 102.201 595.885 101.073 595.167C99.9074 594.462 99.0882 593.409 98.6157 592.006C98.1305 590.566 98.0568 589.282 98.3948 588.155C98.6948 587.041 99.4324 586.286 100.608 585.89C101.669 585.533 102.687 585.612 103.663 586.127C104.626 586.605 105.457 587.317 106.155 588.264C106.218 588.074 106.147 587.675 105.943 587.069C105.573 585.97 104.874 585.15 103.848 584.609C102.771 584.043 101.416 583.655 99.7839 583.445L93.1024 582.594Z" fill="#006B2D"/>
<path d="M47.4974 531.687L48.6709 531.436C48.9944 532.758 49.3684 533.742 49.7928 534.387C50.1697 535.002 50.7352 535.351 51.4895 535.435C52.2047 535.528 53.2859 535.419 54.7331 535.11L83.8351 528.886C85.9865 528.426 87.3165 527.855 87.8253 527.174C88.2949 526.501 88.3331 525.245 87.9399 523.407L87.5635 521.646C89.1225 521.477 90.6144 521.28 92.0393 521.057C93.4558 520.795 94.5357 520.585 95.2789 520.426C96.8435 520.091 98.1022 519.761 99.055 519.434L99.3436 520.784C96.8456 521.727 94.9259 522.792 93.5844 523.979C92.2821 525.157 91.4644 526.498 91.1313 528.001C90.7898 529.465 90.8157 531.116 91.2089 532.954L94.2454 547.153C94.6385 548.992 95.2944 550.528 96.2131 551.764C97.1233 552.96 98.4137 553.829 100.084 554.372C101.794 554.906 103.981 555.093 106.646 554.932L106.935 556.281C105.932 556.373 104.648 556.586 103.084 556.921C102.34 557.08 101.273 557.349 99.8816 557.728C98.4818 558.069 97.0358 558.48 95.5438 558.963L91.8924 541.889C91.4658 539.894 90.8964 538.666 90.1842 538.205C89.4329 537.752 87.9815 537.755 85.8302 538.215L56.7282 544.439C54.5769 544.899 53.2747 545.505 52.8219 546.256C52.3215 546.977 52.2302 548.08 52.5481 549.567L52.7112 550.329C52.8869 551.151 53.166 551.786 53.5486 552.236C53.892 552.695 54.4646 552.981 55.2663 553.096C56.0206 553.18 57.1144 553.13 58.5476 552.947C61.2577 552.612 64.222 552.224 67.4405 551.781C70.6507 551.299 73.8664 550.939 77.0877 550.7C80.2615 550.43 83.227 550.43 85.9843 550.699C88.7332 550.929 91.0406 551.581 92.9063 552.655C94.7721 553.728 95.9476 555.399 96.4327 557.668L95.3179 557.907C94.9332 556.107 93.9461 554.744 92.3569 553.815C90.7285 552.896 88.681 552.311 86.2142 552.061C83.7475 551.812 81.0012 551.785 77.9756 551.982C74.9024 552.149 71.737 552.458 68.4793 552.909C65.2217 553.36 62.0073 553.822 58.8362 554.296C56.738 554.622 55.4583 555.141 54.997 555.853C54.4966 556.574 54.4332 557.999 54.8067 560.128L53.6332 560.379C53.4967 559.549 53.3266 558.563 53.1232 557.42C52.9197 556.277 52.7176 555.236 52.5168 554.298C52.3244 553.398 52.1208 552.542 51.9061 551.729C51.6438 550.885 51.4206 550.033 51.2366 549.172C50.9187 547.686 50.6693 546.328 50.4882 545.099C50.268 543.878 49.978 542.426 49.6183 540.744C49.4092 539.766 49.1833 538.71 48.9408 537.576C48.6507 536.411 48.3969 535.32 48.1794 534.303C47.9144 533.255 47.6871 532.383 47.4974 531.687Z" fill="#006B2D"/>
<path d="M42.2507 496.812C41.8958 492.587 42.4432 488.828 43.8927 485.535C45.3388 482.203 47.6026 479.524 50.6839 477.499C53.7254 475.477 57.5381 474.274 62.1219 473.889C66.5862 473.514 70.5678 474.083 74.0666 475.595C77.5655 477.108 80.3872 479.4 82.5318 482.471C84.673 485.502 85.916 489.071 86.2608 493.176C86.6156 497.402 86.07 501.181 84.6238 504.513C83.1743 507.806 80.9089 510.465 77.8275 512.49C74.7462 514.515 70.9335 515.718 66.3895 516.1C61.9252 516.475 57.9437 515.906 54.4448 514.394C50.9426 512.841 48.1226 510.569 45.9847 507.578C43.8435 504.546 42.5988 500.958 42.2507 496.812ZM43.347 496.961C43.5344 499.193 44.5953 501.071 46.5296 502.595C48.4605 504.078 51.039 505.146 54.2649 505.799C57.4874 506.411 61.1714 506.543 65.3168 506.195C69.5419 505.84 73.1871 505.032 76.2523 503.771C79.2744 502.474 81.5704 500.896 83.1404 499.038C84.6672 497.144 85.3419 495.14 85.1645 493.028C84.977 490.796 83.9178 488.938 81.9869 487.454C80.0526 485.931 77.4742 484.863 74.2516 484.25C70.9858 483.601 67.3002 483.449 63.1946 483.794C58.9296 484.152 55.2861 484.98 52.2641 486.277C49.2388 487.535 46.9627 489.111 45.4359 491.006C43.8658 492.863 43.1695 494.849 43.347 496.961Z" fill="#006B2D"/>
<path d="M62.4014 426.33C62.6266 423.138 63.0617 420.382 63.7066 418.061C64.3117 415.738 65.2648 413.88 66.566 412.489C67.8273 411.094 69.612 410.237 71.9201 409.919L80.0627 408.749C81.7211 408.546 82.8836 408.267 83.5502 407.913C84.1769 407.556 84.5184 406.979 84.5747 406.181C84.5686 405.699 84.4784 405.272 84.3043 404.898C84.0902 404.522 83.7764 404.139 83.3628 403.749L84.1402 402.962C85.264 404.084 86.0601 405.303 86.5287 406.619C87 407.896 87.1737 409.412 87.0498 411.167C86.8978 413.322 86.3336 415.066 85.3572 416.401C84.3409 417.733 82.5604 418.529 80.0157 418.791L70.7445 419.761C69.1287 419.927 67.8024 420.255 66.7654 420.743C65.7313 421.191 64.9368 421.937 64.382 422.981C63.83 423.985 63.4864 425.444 63.3513 427.359L63.1823 429.753L62.1649 429.681L62.4014 426.33ZM44.2976 401.594L45.4348 401.674C45.6212 403.011 46.0812 404.447 46.815 405.982C47.5515 407.478 48.8012 409.09 50.5639 410.818L63.6258 423.469L63.2752 428.437L62.2578 428.365C62.3389 426.646 61.9871 425.098 61.2022 423.719C60.3774 422.337 59.085 420.763 57.3251 418.994L53.3249 415.163C51.6363 413.52 50.1621 412.534 48.9022 412.205C47.6052 411.832 46.5694 412.02 45.7949 412.767C45.0231 413.475 44.5624 414.605 44.4127 416.158L43.2755 416.078C43.4168 414.644 43.5539 413.271 43.6867 411.957C43.8223 410.603 43.9521 409.048 44.0759 407.293C44.2421 404.938 44.316 403.039 44.2976 401.594ZM42.8405 422.243L44.0376 422.327C43.9874 423.607 44.0794 424.576 44.3136 425.234C44.508 425.889 44.9558 426.362 45.6572 426.652C46.3214 426.899 47.3917 427.075 48.868 427.179L78.5542 429.274C79.9906 429.375 81.075 429.352 81.8073 429.203C82.5424 429.014 83.0522 428.609 83.3366 427.988C83.6211 427.366 83.8482 426.42 84.0181 425.148L85.2152 425.233C85.065 426.225 84.9293 427.579 84.8083 429.294C84.6501 430.967 84.5035 432.762 84.3683 434.677C84.2529 436.313 84.156 437.97 84.0776 439.649C83.9594 441.324 83.9035 442.684 83.9101 443.727L82.7131 443.642C82.7206 442.4 82.6272 441.451 82.4328 440.796C82.2413 440.1 81.7934 439.628 81.0893 439.378C80.388 439.088 79.3191 438.892 77.8827 438.79L48.1965 436.696C46.7201 436.591 45.6344 436.635 44.9392 436.827C44.2069 436.975 43.6985 437.361 43.4141 437.982C43.0897 438.601 42.8625 439.547 42.7325 440.821L41.5355 440.737C41.6486 439.702 41.7842 438.348 41.9424 436.675C42.1005 435.002 42.2373 433.348 42.3528 431.712C42.4879 429.797 42.5947 428 42.673 426.321C42.7542 424.603 42.81 423.243 42.8405 422.243ZM41.1005 446.901L42.2377 446.982C42.1677 448.541 42.4637 449.744 43.1256 450.593C43.7904 451.402 44.7895 451.733 46.1232 451.587C47.4197 451.397 49.0192 450.608 50.9217 449.219L55.4204 445.987C57.4111 444.484 58.9118 443.106 59.9225 441.854C60.8932 440.599 61.4577 439.135 61.6158 437.462L62.6333 437.534L62.2827 442.502L47.5779 453.133C45.59 454.597 44.1249 456.037 43.1828 457.454C42.2436 458.831 41.5878 460.169 41.2156 461.466L40.0784 461.385C40.3023 459.918 40.4959 458.026 40.6592 455.712C40.7831 453.957 40.8715 452.419 40.9245 451.099C40.9804 449.74 41.039 448.341 41.1005 446.901ZM61.7087 436.145L62.7262 436.217L62.5615 438.551C62.4291 440.427 62.5644 441.92 62.9672 443.031C63.37 444.142 64.0518 444.992 65.0127 445.581C65.9736 446.17 67.2408 446.681 68.8144 447.113L77.8576 449.375C80.3375 450.031 81.9871 451.09 82.8063 452.551C83.5883 453.97 83.9034 455.756 83.7513 457.911C83.6246 459.706 83.2383 461.203 82.5924 462.401C81.9465 463.598 80.9885 464.673 79.7182 465.626L79.0591 464.738C79.5234 464.409 79.8879 464.074 80.1526 463.732C80.3775 463.387 80.5267 462.977 80.6004 462.501C80.6539 461.742 80.3955 461.143 79.8251 460.702C79.2177 460.218 78.1073 459.758 76.4939 459.324L68.5963 457.022C66.3586 456.343 64.7118 455.244 63.656 453.726C62.5604 452.205 61.8762 450.252 61.6034 447.867C61.2935 445.439 61.2512 442.629 61.4764 439.437L61.7087 436.145Z" fill="#006B2D"/>
<path d="M93.2879 374.399L92.1176 374.133C92.3231 372.867 92.3797 371.896 92.2873 371.218C92.195 370.541 91.82 370.025 91.1621 369.671C90.5131 369.277 89.4865 368.921 88.0823 368.602L59.0612 362.012C57.6179 361.684 56.5382 361.562 55.8219 361.646C55.0755 361.681 54.51 362.004 54.1253 362.614C53.7106 363.176 53.3464 364.057 53.0328 365.258L51.8626 364.992C52.1407 363.947 52.4898 362.591 52.9097 360.923C53.3384 359.215 53.7432 357.523 54.1241 355.846C54.5316 354.051 54.893 352.37 55.2083 350.8C55.5325 349.192 55.7858 347.896 55.9682 346.912L57.1384 347.178C56.894 348.435 56.833 349.426 56.9555 350.151C57.0478 350.828 57.4228 351.344 58.0807 351.699C58.6995 352.044 59.7305 352.381 61.1738 352.709L90.1949 359.299C91.5992 359.618 92.6745 359.76 93.4209 359.724C94.1762 359.65 94.7417 359.327 95.1175 358.756C95.4932 358.185 95.8619 357.284 96.2233 356.054L97.3935 356.319C97.0941 357.277 96.7627 358.555 96.3996 360.154C96.0062 361.706 95.6058 363.379 95.1984 365.173C94.8175 366.85 94.4517 368.552 94.1009 370.277C93.72 371.954 93.449 373.328 93.2879 374.399ZM87.6542 399.207L86.484 398.942C86.6894 397.676 86.746 396.704 86.6537 396.027C86.5613 395.35 86.1863 394.834 85.5284 394.479C84.8795 394.086 83.8529 393.73 82.4486 393.411L53.4275 386.82C51.9842 386.493 50.9045 386.37 50.1882 386.454C49.4418 386.489 48.8763 386.812 48.4917 387.422C48.0769 387.984 47.7127 388.866 47.3991 390.066L46.2289 389.8C46.4982 388.795 46.8339 387.497 47.2361 385.907C47.6472 384.277 48.0697 382.507 48.5037 380.595C48.8758 378.957 49.2239 377.334 49.5481 375.726C49.8722 374.118 50.1344 372.783 50.3346 371.721L51.5048 371.986C51.2603 373.243 51.1993 374.234 51.3218 374.96C51.4141 375.637 51.7892 376.153 52.447 376.507C53.0658 376.853 54.0969 377.189 55.5401 377.517L84.5612 384.108C85.9655 384.426 87.0408 384.568 87.7872 384.532C88.5425 384.458 89.108 384.135 89.4838 383.564C89.8596 382.993 90.2282 382.092 90.5896 380.862L91.7599 381.128C91.4427 382.163 91.1025 383.481 90.7393 385.08C90.3371 386.67 89.95 388.285 89.578 389.923C89.1439 391.834 88.7604 393.613 88.4274 395.261C88.0642 396.86 87.8065 398.175 87.6542 399.207ZM69.6551 384.722L68.4849 384.456L73.7333 361.345L74.9035 361.61L69.6551 384.722Z" fill="#006B2D"/>
<path d="M65.7275 317.458L66.8495 317.883C66.4329 319.094 66.2421 320.049 66.2769 320.746C66.2743 321.43 66.5671 322.012 67.1551 322.491C67.72 322.92 68.6943 323.396 70.0781 323.921L97.9037 334.475C99.2501 334.986 100.295 335.276 101.039 335.344C101.798 335.375 102.403 335.134 102.854 334.62C103.305 334.107 103.795 333.266 104.324 332.098L105.446 332.523C104.988 333.505 104.469 334.762 103.887 336.296C103.268 337.815 102.661 339.36 102.065 340.931C101.37 342.763 100.743 344.472 100.184 346.057C99.6029 347.591 99.165 348.858 98.871 349.858L97.749 349.433C98.1139 348.245 98.2977 347.309 98.3003 346.626C98.3171 345.905 98.0243 345.323 97.422 344.881C96.834 344.401 95.8667 343.906 94.5203 343.395L66.6948 332.841C65.311 332.316 64.2586 332.045 63.5377 332.028C62.7936 331.96 62.1887 332.201 61.7232 332.752C61.2344 333.251 60.7514 334.073 60.2742 335.218L59.1522 334.793C59.5585 333.835 60.0711 332.596 60.6901 331.077C61.3234 329.52 61.9875 327.825 62.6826 325.993C63.2785 324.422 63.8485 322.863 64.3927 321.315C64.9369 319.768 65.3819 318.482 65.7275 317.458ZM73.7072 305.725C73.7072 305.725 73.9129 305.803 74.3243 305.959C74.6983 306.101 75.091 306.25 75.5024 306.406C75.928 306.525 76.1408 306.584 76.1408 306.584L100.73 337.344L98.9677 337.253L73.7072 305.725ZM75.1754 292.55L76.2974 292.975C75.8809 294.186 75.69 295.14 75.7248 295.838C75.7222 296.522 76.015 297.103 76.6031 297.583C77.1679 298.011 78.1423 298.488 79.5261 299.013L107.352 309.567C108.698 310.078 109.743 310.367 110.487 310.436C111.246 310.467 111.851 310.225 112.302 309.712C112.753 309.199 113.243 308.358 113.772 307.19L114.894 307.615C114.451 308.559 113.931 309.817 113.335 311.387C112.702 312.944 112.045 314.62 111.364 316.415C110.768 317.986 110.191 319.564 109.632 321.149C109.051 322.682 108.613 323.949 108.319 324.95L107.197 324.524C107.562 323.337 107.746 322.401 107.748 321.717C107.751 321.034 107.458 320.452 106.87 319.973C106.282 319.493 105.315 318.998 103.968 318.487L76.1427 307.932C74.7589 307.408 73.7065 307.137 72.9856 307.12C72.2273 307.089 71.6225 307.33 71.1711 307.844C70.6823 308.343 70.1993 309.165 69.7222 310.31L68.6002 309.884C69.0064 308.926 69.519 307.687 70.1381 306.168C70.7713 304.612 71.3858 303.048 71.9816 301.477C72.6626 299.682 73.2822 297.992 73.8406 296.407C74.3991 294.822 74.844 293.536 75.1754 292.55Z" fill="#006B2D"/>
<path d="M89.165 264.362L90.2225 264.929C89.6528 266.076 89.3307 267.015 89.256 267.747C89.1651 268.424 89.3896 269.021 89.9296 269.538C90.4343 270.035 91.3388 270.634 92.6431 271.334L118.87 285.398C120.139 286.079 121.138 286.501 121.867 286.665C122.615 286.794 123.246 286.633 123.76 286.182C124.274 285.732 124.868 284.961 125.544 283.871L126.601 284.438C126.021 285.352 125.343 286.532 124.567 287.977C123.757 289.404 122.955 290.857 122.161 292.338C121.254 294.03 120.411 295.643 119.633 297.178C118.839 298.658 118.241 299.858 117.839 300.777L116.782 300.21C117.316 299.044 117.629 298.123 117.72 297.445C117.811 296.768 117.586 296.171 117.046 295.654C116.525 295.102 115.63 294.486 114.361 293.806L88.1344 279.741C86.8302 279.041 85.8217 278.637 85.109 278.527C84.3799 278.363 83.749 278.524 83.2161 279.01C82.6669 279.441 82.0816 280.194 81.4603 281.268L80.4028 280.701C80.9107 279.838 81.5792 278.676 82.4085 277.215C83.2566 275.718 84.1344 274.123 85.0418 272.431C85.8357 270.951 86.6027 269.478 87.3425 268.014C88.0823 266.55 88.6898 265.333 89.165 264.362ZM105.31 276.152C106.822 273.332 108.347 270.995 109.886 269.142C111.408 267.235 113.038 265.931 114.776 265.229C116.498 264.473 118.486 264.404 120.741 265.024L128.649 267.29C130.245 267.783 131.42 268.005 132.173 267.955C132.891 267.886 133.439 267.499 133.817 266.794C134.009 266.352 134.092 265.943 134.067 265.566C134.026 265.135 133.906 264.64 133.707 264.079L134.738 263.679C135.286 265.198 135.513 266.636 135.42 267.994C135.328 269.351 134.866 270.805 134.034 272.357C133.013 274.26 131.784 275.621 130.347 276.439C128.874 277.238 126.924 277.236 124.495 276.432L115.639 273.521C114.097 273.012 112.753 272.768 111.607 272.789C110.48 272.774 109.45 273.13 108.516 273.855C107.583 274.579 106.662 275.788 105.755 277.48L104.649 279.542L103.75 279.06L105.31 276.152ZM105.273 278.379L104.374 277.897C105.152 276.362 105.484 274.77 105.37 273.12C105.221 271.452 104.696 269.468 103.795 267.17L101.714 262.037C100.865 259.811 99.933 258.29 98.9184 257.474C97.8686 256.638 96.8468 256.385 95.8531 256.715C94.8594 257.044 93.9668 257.905 93.1754 259.296L92.1707 258.757C92.9055 257.472 93.6024 256.257 94.2615 255.112C94.9205 253.968 95.666 252.62 96.4978 251.069C97.6131 248.99 98.4582 247.287 99.033 245.961L100.038 246.5C99.6606 247.795 99.5019 249.276 99.5616 250.942C99.6213 252.608 100.092 254.608 100.974 256.942L107.626 273.99L105.273 278.379Z" fill="#006B2D"/>
<path d="M116.449 219.496L117.42 220.201C116.701 221.261 116.267 222.132 116.117 222.814C115.936 223.473 116.066 224.111 116.508 224.728C116.941 225.289 117.756 226.004 118.954 226.874L143.041 244.351C144.207 245.196 145.14 245.75 145.84 246.011C146.564 246.239 147.211 246.165 147.781 245.788C148.351 245.411 149.044 244.728 149.861 243.739L150.832 244.444C150.133 245.271 149.302 246.348 148.339 247.675C147.343 248.979 146.352 250.311 145.365 251.671C144.214 253.257 143.162 254.742 142.208 256.125C141.244 257.453 140.49 258.561 139.944 259.45L138.973 258.745C139.636 257.694 140.059 256.84 140.24 256.181C140.445 255.489 140.315 254.851 139.85 254.267C139.408 253.649 138.604 252.918 137.439 252.072L113.351 234.595C112.153 233.726 111.209 233.189 110.518 232.984C109.817 232.723 109.17 232.797 108.577 233.207C107.974 233.56 107.293 234.227 106.532 235.207L105.561 234.502C106.204 233.684 107.023 232.623 108.019 231.319C109.038 229.983 110.123 228.522 111.274 226.935C112.261 225.575 113.219 224.22 114.15 222.869C115.081 221.518 115.847 220.394 116.449 219.496ZM127.224 210.265C127.224 210.265 127.402 210.394 127.758 210.652C128.082 210.887 128.422 211.134 128.778 211.392C129.158 211.618 129.348 211.731 129.348 211.731L145.017 247.86L143.34 247.31L127.224 210.265ZM132.094 197.934L133.065 198.639C132.346 199.698 131.911 200.569 131.762 201.252C131.581 201.911 131.711 202.549 132.153 203.166C132.586 203.727 133.401 204.442 134.599 205.311L158.686 222.789C159.852 223.634 160.785 224.188 161.485 224.449C162.209 224.677 162.856 224.603 163.426 224.226C163.996 223.849 164.689 223.166 165.505 222.177L166.477 222.881C165.801 223.676 164.97 224.754 163.984 226.113C162.965 227.45 161.891 228.895 160.764 230.449C159.777 231.809 158.807 233.18 157.852 234.563C156.889 235.891 156.135 236.999 155.589 237.888L154.617 237.183C155.281 236.132 155.703 235.277 155.885 234.618C156.067 233.959 155.937 233.321 155.495 232.704C155.053 232.087 154.249 231.356 153.084 230.51L128.996 213.033C127.798 212.164 126.854 211.627 126.162 211.422C125.439 211.193 124.792 211.267 124.222 211.644C123.619 211.998 122.938 212.665 122.177 213.645L121.206 212.94C121.849 212.122 122.668 211.061 123.664 209.757C124.683 208.421 125.686 207.073 126.672 205.713C127.8 204.159 128.841 202.69 129.795 201.307C130.749 199.924 131.515 198.799 132.094 197.934Z" fill="#006B2D"/>
<path d="M154.791 171.679C155.54 171.015 156.535 170.116 157.774 168.982C159.043 167.819 160.283 166.657 161.495 165.493C162.88 164.164 164.208 162.861 165.479 161.586C166.75 160.31 167.659 159.41 168.208 158.883C171.786 155.448 175.065 153.521 178.044 153.101C181.051 152.653 183.511 153.425 185.422 155.416C186.392 156.426 187.072 157.741 187.463 159.362C187.855 160.982 187.803 162.806 187.309 164.833C186.815 166.86 185.738 169.03 184.078 171.344L184.161 171.431C187.068 169.029 189.689 167.456 192.024 166.712C194.359 165.967 196.399 165.811 198.144 166.243C199.889 166.674 201.329 167.482 202.465 168.665C205.069 171.377 205.996 174.48 205.245 177.973C204.524 181.438 202.302 184.957 198.579 188.53C197.887 189.195 196.863 190.15 195.508 191.395C194.154 192.584 192.568 194.051 190.75 195.796C189.48 197.015 188.239 198.234 187.026 199.454C185.814 200.618 184.875 201.574 184.209 202.325L183.378 201.459C184.246 200.515 184.827 199.735 185.123 199.118C185.418 198.502 185.389 197.865 185.035 197.207C184.709 196.521 184.048 195.659 183.051 194.62L162.442 173.151C161.417 172.083 160.582 171.387 159.938 171.063C159.295 170.682 158.646 170.64 157.989 170.938C157.333 171.179 156.544 171.715 155.622 172.545L154.791 171.679ZM168.434 160.246C167.309 161.326 166.809 162.278 166.933 163.101C167.087 163.896 167.884 165.044 169.324 166.544L189.933 188.014C191.373 189.514 192.503 190.315 193.321 190.417C194.112 190.49 195.127 189.931 196.368 188.739C198.446 186.745 199.338 184.642 199.043 182.429C198.75 180.16 197.44 177.813 195.114 175.389C192.981 173.167 190.77 171.99 188.481 171.859C186.221 171.699 183.807 172.852 181.239 175.318L177.56 178.849C177.56 178.849 177.449 178.734 177.227 178.503C176.978 178.243 176.853 178.114 176.853 178.114L180.576 174.54C181.932 173.238 182.666 171.924 182.778 170.596C182.862 169.24 182.536 167.89 181.8 166.545C181.036 165.171 180.058 163.864 178.867 162.623C176.818 160.488 174.948 159.205 173.26 158.774C171.543 158.315 169.935 158.805 168.434 160.246Z" fill="#006B2D"/>
<path d="M207.446 124.118C209.556 122.532 211.523 121.554 213.346 121.184C215.178 120.757 216.934 120.563 218.614 120.602C219.614 120.6 220.141 120.304 220.197 119.712C220.26 119.064 219.839 118.004 218.933 116.533L220.036 115.704C220.91 116.999 222.003 118.554 223.317 120.368C224.607 122.151 226.358 124.513 228.569 127.454L227.466 128.283C226.201 126.933 225.056 125.842 224.031 125.011C222.982 124.149 221.933 123.486 220.884 123.023C219.836 122.56 218.656 122.321 217.344 122.307C215.943 122.109 214.571 122.214 213.228 122.624C211.884 123.033 210.637 123.671 209.486 124.536C207.76 125.834 206.637 127.403 206.119 129.244C205.578 131.052 205.512 133.028 205.922 135.172C206.365 137.291 207.155 139.475 208.294 141.721C209.408 143.936 210.759 146.098 212.345 148.209C213.956 150.351 215.682 152.281 217.524 153.999C219.374 155.661 221.259 156.971 223.18 157.928C225.133 158.862 227.07 159.308 228.99 159.266C230.91 159.224 232.717 158.565 234.411 157.292C235.467 156.498 236.377 155.513 237.144 154.336C237.919 153.104 238.401 151.815 238.592 150.471C239.118 148.574 239.075 146.754 238.465 145.011C237.831 143.236 236.737 141.081 235.182 138.547L236.285 137.717C238.569 140.755 240.435 143.205 241.886 145.067C243.312 146.897 244.537 148.428 245.563 149.659L244.46 150.488C243.298 149.209 242.425 148.514 241.841 148.403C241.289 148.268 240.83 148.688 240.463 149.665C239.905 151.385 239.195 153.07 238.333 154.719C237.478 156.312 236.012 157.89 233.934 159.452C230.545 162 227.055 163.548 223.463 164.096C219.904 164.62 216.447 164.116 213.093 162.584C209.74 161.052 206.693 158.463 203.953 154.818C201.261 151.237 199.624 147.563 199.044 143.796C198.496 140.004 198.92 136.408 200.316 133.006C201.744 129.581 204.12 126.618 207.446 124.118Z" fill="#006B2D"/>
<path d="M259.407 91.4601C260.153 93.0618 260.905 94.5915 261.66 96.0493C262.45 97.4869 263.067 98.5861 263.509 99.3467C263.912 100.038 264.311 100.685 264.708 101.287C265.104 101.889 265.441 102.388 265.717 102.783L264.524 103.477C262.71 101.154 261.017 99.4778 259.446 98.4481C257.855 97.3839 256.301 96.8999 254.783 96.9961C253.28 97.0376 251.751 97.511 250.195 98.4162L248.069 99.6533C247.032 100.257 246.304 100.796 245.886 101.27C245.503 101.725 245.375 102.262 245.504 102.881C245.613 103.466 245.989 104.311 246.633 105.417L262.324 132.385C262.947 133.457 263.496 134.202 263.971 134.62C264.446 135.038 264.975 135.192 265.56 135.084C266.179 134.955 267.007 134.588 268.044 133.985L270.585 132.506C272.141 131.601 273.316 130.478 274.109 129.137C274.917 127.742 275.263 125.99 275.147 123.882C275.066 121.755 274.446 119.177 273.286 116.149L274.479 115.455C275.019 116.622 275.812 118.104 276.858 119.902C277.32 120.697 277.991 121.811 278.871 123.243C279.75 124.675 280.729 126.119 281.807 127.574C280.004 128.531 277.996 129.653 275.783 130.94C273.55 132.193 271.569 133.322 269.841 134.328C268.665 135.012 267.109 135.917 265.173 137.044C263.237 138.17 261.19 139.385 259.032 140.686C256.854 141.954 254.851 143.165 253.025 144.321L252.421 143.283C253.487 142.571 254.237 141.949 254.669 141.42C255.102 140.891 255.223 140.265 255.034 139.542C254.879 138.799 254.44 137.805 253.716 136.56L238.749 110.837C238.005 109.558 237.358 108.685 236.809 108.218C236.274 107.696 235.652 107.503 234.944 107.637C234.25 107.717 233.357 108.052 232.265 108.641L231.661 107.603C233.548 106.552 235.591 105.409 237.789 104.177C239.987 102.944 242.055 101.764 243.991 100.638C245.927 99.5113 247.483 98.6061 248.658 97.9221C250.249 96.9968 252.046 95.9507 254.052 94.784C256.071 93.5626 257.856 92.4546 259.407 91.4601ZM261.636 113.904C261.636 113.904 261.737 114.076 261.938 114.422C262.139 114.768 262.239 114.941 262.239 114.941L253.164 120.221C253.164 120.221 253.063 120.048 252.862 119.703C252.661 119.357 252.56 119.184 252.56 119.184L261.636 113.904ZM259.157 106.183C260.165 108.234 260.971 109.778 261.575 110.816C262.213 111.833 262.783 112.773 263.286 113.638C263.789 114.502 264.359 115.443 264.998 116.46C265.636 117.477 266.597 118.931 267.882 120.821L266.689 121.515C265.812 120.405 264.83 119.473 263.743 118.717C262.69 117.941 261.55 117.494 260.323 117.375C259.077 117.221 257.762 117.546 256.379 118.35L255.776 117.313C257.159 116.509 258.044 115.485 258.431 114.241C258.818 112.998 258.935 111.727 258.781 110.428C258.607 109.095 258.334 107.911 257.964 106.877L259.157 106.183Z" fill="#006B2D"/>
<path d="M286.657 77.9766L287.161 79.1314C285.511 79.8514 284.52 80.4804 284.187 81.0184C283.875 81.5037 284.144 82.0193 284.993 82.5651L320.667 104.9C321.848 105.606 322.738 106.046 323.338 106.221C323.938 106.396 324.621 106.36 325.386 106.113L325.89 107.268C325.141 107.551 324.062 107.978 322.653 108.55C321.228 109.085 319.764 109.68 318.261 110.336C316.611 111.056 314.94 111.829 313.249 112.654C311.579 113.427 310.33 114.016 309.503 114.42L308.999 113.266C310.685 112.529 311.719 111.947 312.1 111.519C312.501 111.039 312.277 110.526 311.427 109.98L275.603 87.4494C274.443 86.6902 273.562 86.2234 272.962 86.0488C272.363 85.8742 271.67 85.9366 270.884 86.236L270.38 85.0812C271.166 84.7818 272.308 84.3488 273.806 83.782C275.325 83.1626 276.836 82.5249 278.339 81.8689C279.989 81.1488 281.557 80.4424 283.044 79.7497C284.552 79.0043 285.756 78.4133 286.657 77.9766ZM295.624 97.172C295.624 97.172 295.802 97.3783 296.156 97.7909C296.511 98.2035 296.688 98.4098 296.688 98.4098L294.478 108.344C293.875 110.963 293.787 113.01 294.211 114.483C294.62 115.919 295.396 116.846 296.538 117.264C297.701 117.629 299.114 117.515 300.775 116.921L301.255 118.021C300.542 118.288 299.618 118.67 298.481 119.166C297.329 119.625 296.203 120.095 295.103 120.575C293.987 121.018 293.117 121.376 292.494 121.648C290.295 122.608 288.632 123.399 287.507 124.021L287.027 122.921C288.118 121.921 289.084 120.583 289.923 118.908C290.747 117.195 291.463 115.137 292.072 112.732L295.624 97.172ZM306.422 69.4148L306.902 70.5146C305.836 71.3726 304.931 72.5972 304.185 74.1884C303.476 75.7636 302.912 77.4717 302.494 79.3129L298.77 95.079C298.77 95.079 298.592 94.8727 298.238 94.4602C297.92 94.0316 297.761 93.8173 297.761 93.8173L300.088 83.7015C301.01 80.1132 300.949 77.6739 299.906 76.3835C298.862 75.0931 297.199 74.881 294.914 75.7471L294.434 74.6473C295.513 74.2199 296.721 73.7365 298.057 73.1971C299.392 72.6577 300.519 72.188 301.435 71.788C303.635 70.8279 305.297 70.0369 306.422 69.4148Z" fill="#006B2D"/>
<path d="M359.615 52.0599C362.18 51.4389 364.374 51.3196 366.195 51.7019C368.046 52.036 369.735 52.5532 371.262 53.2535C372.181 53.6485 372.783 53.5851 373.068 53.0634C373.383 52.4934 373.416 51.3537 373.167 49.6443L374.508 49.3197C374.797 50.8547 375.186 52.7155 375.674 54.9021C376.152 57.0497 376.824 59.912 377.69 63.4887L376.349 63.8133C375.722 62.072 375.102 60.6169 374.49 59.4481C373.868 58.2404 373.168 57.2165 372.388 56.3762C371.609 55.536 370.62 54.8495 369.421 54.3166C368.213 53.5798 366.912 53.1335 365.516 52.9774C364.12 52.8214 362.722 52.9128 361.323 53.2515C359.223 53.7596 357.571 54.7561 356.367 56.2411C355.153 57.6872 354.31 59.4757 353.838 61.6065C353.405 63.7279 353.266 66.0456 353.422 68.5595C353.568 71.0345 353.952 73.555 354.573 76.1209C355.203 78.7257 356.024 81.1816 357.035 83.4885C358.076 85.7471 359.288 87.6966 360.673 89.3369C362.096 90.9678 363.698 92.1441 365.478 92.8657C367.257 93.5873 369.177 93.6988 371.238 93.2001C372.521 92.8896 373.747 92.3458 374.918 91.5688C376.117 90.7435 377.07 89.7514 377.778 88.5925C379.012 87.0592 379.694 85.3714 379.824 83.5291C379.945 81.6478 379.793 79.2358 379.369 76.293L380.71 75.9684C381.604 79.6618 382.348 82.6507 382.942 84.935C383.527 87.1805 384.046 89.0714 384.5 90.6077L383.159 90.9323C382.599 89.2982 382.073 88.3144 381.581 87.9808C381.127 87.6378 380.539 87.842 379.815 88.5933C378.621 89.9522 377.302 91.2181 375.857 92.3908C374.442 93.5153 372.471 94.3833 369.944 94.9949C365.823 95.9922 362.005 96.0314 358.49 95.1124C355.014 94.184 352.04 92.3522 349.567 89.6171C347.094 86.8821 345.322 83.2985 344.249 78.8664C343.195 74.5121 343.148 70.4904 344.107 66.8013C345.105 63.1028 346.919 59.9682 349.548 57.3976C352.216 54.8177 355.571 53.0384 359.615 52.0599Z" fill="#006B2D"/>
<path d="M425.608 42.0915C425.682 44.1365 425.787 46.0973 425.923 47.9741C426.098 49.8464 426.243 51.2792 426.357 52.2726C426.458 53.1469 426.574 53.9791 426.705 54.7692C426.836 55.5594 426.954 56.2304 427.058 56.7821L425.687 56.94C424.667 53.6752 423.548 51.1265 422.33 49.2937C421.152 47.4564 419.842 46.2181 418.399 45.5789C416.952 44.9 415.315 44.6658 413.487 44.8762L412.116 45.0341L416.034 79.0692C416.217 80.6587 416.514 81.8325 416.923 82.5907C417.372 83.3443 418.07 83.8075 419.016 83.9804C419.957 84.1136 421.304 84.0995 423.057 83.9379L423.195 85.13C421.958 85.2321 420.305 85.3822 418.234 85.5804C416.202 85.774 414.074 85.9989 411.849 86.2551C409.663 86.5068 407.599 86.7645 405.657 87.0285C403.714 87.2924 402.149 87.5128 400.962 87.6898L400.824 86.4977C402.608 86.2521 403.943 85.9574 404.829 85.6138C405.711 85.2304 406.266 84.623 406.492 83.7917C406.718 82.9603 406.74 81.7499 406.557 80.1604L402.638 46.1252L401.327 46.2762C399.499 46.4867 397.958 47.0869 396.703 48.077C395.443 49.0273 394.449 50.5309 393.719 52.5878C392.985 54.6051 392.455 57.3437 392.128 60.8037L390.757 60.9616C390.773 60.3961 390.735 59.716 390.643 58.9212C390.592 58.1219 390.515 57.2851 390.415 56.4109C390.3 55.4175 390.096 53.9915 389.801 52.133C389.547 50.2699 389.223 48.3342 388.831 46.3259C390.663 46.1552 392.655 45.9661 394.805 45.7588C396.995 45.5469 399.183 45.3151 401.369 45.0635C403.554 44.8119 405.521 44.5854 407.27 44.3841C409.058 44.1782 411.025 43.9517 413.171 43.7047C415.356 43.453 417.54 43.1815 419.721 42.8902C421.901 42.5988 423.864 42.3326 425.608 42.0915Z" fill="#006B2D"/>
<path d="M439.095 41.013C440.095 41.0541 441.435 41.0956 443.115 41.1375C444.835 41.1794 446.535 41.2013 448.215 41.2031C450.135 41.2053 451.995 41.1873 453.795 41.1494C455.595 41.1114 456.875 41.0928 457.635 41.0936C463.195 41.0998 467.354 42.2045 470.112 44.4075C472.869 46.6106 474.246 49.4521 474.242 52.9321C474.241 54.3721 473.959 55.8918 473.397 57.4912C472.835 59.0506 471.874 60.5095 470.512 61.868C469.191 63.1865 467.37 64.2645 465.049 65.1019C462.728 65.9393 459.807 66.3561 456.287 66.3521L450.167 66.3453L450.169 65.1453L455.689 65.1515C458.049 65.1541 459.829 64.6161 461.03 63.5374C462.272 62.4588 463.113 61.0397 463.555 59.2802C464.037 57.5208 464.279 55.621 464.281 53.581C464.286 49.781 463.729 46.9404 462.611 45.0592C461.493 43.1779 459.574 42.2358 456.854 42.2328C455.294 42.231 454.274 42.5699 453.793 43.2494C453.352 43.9289 453.131 45.3086 453.128 47.3886L453.096 76.7886C453.094 78.3486 453.253 79.5088 453.572 80.2691C453.891 81.0295 454.51 81.5302 455.43 81.7712C456.35 82.0122 457.71 82.1537 459.51 82.1957L459.508 83.5157C458.268 83.4744 456.668 83.4326 454.708 83.3904C452.748 83.3482 450.688 83.3259 448.528 83.3235C446.808 83.3216 445.128 83.3397 443.488 83.3779C441.848 83.4161 440.368 83.4544 439.048 83.493L439.049 82.293C440.33 82.2144 441.29 82.0554 441.93 81.8162C442.57 81.5769 442.991 81.0973 443.192 80.3776C443.432 79.6578 443.554 78.578 443.555 77.138L443.588 47.378C443.59 45.898 443.471 44.8179 443.232 44.1376C443.033 43.4174 442.593 42.9369 441.914 42.6961C441.274 42.4154 440.334 42.2544 439.094 42.213L439.095 41.013Z" fill="#006B2D"/>
<path d="M506.383 43.5774L516.498 82.5777C516.887 84.0731 517.386 85.1384 517.997 85.7736C518.651 86.3738 519.254 86.7263 519.806 86.8311L519.666 88.023C518.484 87.804 517.078 87.5992 515.449 87.4086C513.865 87.1828 512.258 86.9746 510.629 86.784C508.802 86.5701 507.071 86.3877 505.438 86.2367C503.809 86.0461 502.513 85.9347 501.55 85.9025L501.69 84.7107C503.725 84.8684 505.036 84.6795 505.622 84.144C506.253 83.5734 506.289 82.2286 505.732 80.1094L498.845 51.2128L500.099 49.7889L488.278 72.3276C486.822 75.1373 486.005 77.297 485.828 78.8067C485.691 80.3211 486.067 81.4122 486.956 82.08C487.849 82.708 489.085 83.1548 490.665 83.4203L490.525 84.6121C489.224 84.3792 487.977 84.193 486.785 84.0535C485.598 83.8743 484.388 83.7126 483.157 83.5684C482.283 83.4661 481.446 83.3883 480.647 83.3351C479.892 83.2467 479.212 83.2074 478.607 83.2171L478.746 82.0252C479.599 81.964 480.516 81.5276 481.497 80.7162C482.478 79.9047 483.514 78.4553 484.604 76.3678L502.271 43.0961C502.902 43.2103 503.575 43.3092 504.291 43.3929C505.045 43.4812 505.743 43.5428 506.383 43.5774ZM507.611 69.214L507.472 70.4059L489.713 68.3273L490.448 67.2052L507.611 69.214Z" fill="#006B2D"/>
<path d="M549.179 94.4598L549.467 93.2948C550.729 93.5242 551.699 93.5991 552.378 93.5197C553.057 93.4402 553.58 93.075 553.947 92.424C554.352 91.7826 554.728 90.7629 555.073 89.3649L562.212 60.4739C562.567 59.0371 562.71 57.9599 562.64 57.2421C562.619 56.4952 562.307 55.9237 561.704 55.5275C561.15 55.1022 560.276 54.7214 559.082 54.3851L559.37 53.2201C560.408 53.518 561.758 53.8927 563.418 54.3441C565.117 54.8052 566.802 55.242 568.471 55.6546C570.258 56.096 571.932 56.4892 573.495 56.8341C575.097 57.1887 576.388 57.4665 577.368 57.6676L577.08 58.8326C575.828 58.5643 574.838 58.4846 574.111 58.5933C573.432 58.6727 572.909 59.038 572.542 59.689C572.185 60.3011 571.829 61.3256 571.474 62.7624L564.335 91.6534C563.989 93.0514 563.827 94.1239 563.849 94.8708C563.909 95.6274 564.221 96.1989 564.785 96.5854C565.349 96.9719 566.242 97.3575 567.466 97.7423L567.178 98.9072C566.226 98.5897 564.954 98.2342 563.362 97.8408C561.819 97.4181 560.154 96.9861 558.367 96.5447C556.698 96.1321 555.004 95.7341 553.285 95.3508C551.616 94.9382 550.247 94.6412 549.179 94.4598ZM524.482 88.3571L524.77 87.1921C526.032 87.4215 527.002 87.4965 527.681 87.417C528.36 87.3375 528.883 86.9723 529.25 86.3213C529.655 85.6799 530.031 84.6602 530.376 83.2623L537.515 54.3712C537.87 52.9344 538.013 51.8572 537.943 51.1395C537.922 50.3925 537.61 49.821 537.007 49.4249C536.453 48.9995 535.579 48.6187 534.384 48.2824L534.672 47.1174C535.672 47.4057 536.964 47.766 538.546 48.1983C540.168 48.6401 541.93 49.0961 543.832 49.5663C545.463 49.9693 547.08 50.3481 548.681 50.7027C550.283 51.0573 551.613 51.3447 552.671 51.5649L552.383 52.7299C551.131 52.4616 550.141 52.3819 549.414 52.4906C548.735 52.5701 548.212 52.9353 547.845 53.5863C547.488 54.1985 547.132 55.2229 546.777 56.6597L539.638 85.5508C539.292 86.9487 539.13 88.0212 539.152 88.7681C539.212 89.5247 539.524 90.0962 540.088 90.4827C540.652 90.8693 541.545 91.2549 542.769 91.6396L542.481 92.8045C541.451 92.4678 540.141 92.1027 538.549 91.7093C536.966 91.2771 535.359 90.8595 533.728 90.4564C531.826 89.9863 530.054 89.5691 528.413 89.2049C526.821 88.8115 525.511 88.5289 524.482 88.3571ZM539.306 70.6357L539.594 69.4707L562.602 75.156L562.314 76.321L539.306 70.6357Z" fill="#006B2D"/>
<path d="M582.982 95.6434C583.924 95.977 584.675 96.4336 585.234 97.0131C585.792 97.5927 586.147 98.2697 586.297 99.0442C586.525 99.7189 586.58 100.523 586.462 101.457C586.381 102.405 586.187 103.312 585.88 104.179C585.213 106.065 584.109 107.626 582.568 108.863C581.052 110.151 579.108 110.906 576.739 111.128L576.59 109.929C577.806 109.851 578.995 109.487 580.158 108.837C581.322 108.188 582.152 107.4 582.65 106.473C583.132 105.71 583.412 104.918 583.491 104.097C582.341 104.709 581.087 104.774 579.73 104.294C578.41 103.827 577.468 103.07 576.906 102.022C576.356 100.936 576.322 99.7149 576.802 98.3574C577.269 97.0376 578.077 96.1352 579.224 95.6503C580.409 95.1786 581.662 95.1763 582.982 95.6434Z" fill="#006B2D"/>
<path d="M651.606 87.1707C655.35 89.1608 658.213 91.6568 660.196 94.6587C662.215 97.6794 663.241 101.033 663.274 104.72C663.326 108.372 662.273 112.229 660.114 116.291C658.011 120.246 655.376 123.285 652.21 125.408C649.043 127.53 645.588 128.66 641.845 128.8C638.137 128.958 634.464 128.07 630.826 126.136C627.082 124.146 624.201 121.641 622.183 118.62C620.2 115.618 619.191 112.273 619.158 108.586C619.125 104.899 620.178 101.043 622.318 97.0161C624.421 93.0603 627.056 90.0213 630.222 87.8992C633.424 85.796 636.861 84.6559 640.534 84.479C644.242 84.3209 647.933 85.2181 651.606 87.1707ZM650.887 88.0117C648.909 86.9603 646.756 86.8351 644.428 87.636C642.135 88.4556 639.841 90.0447 637.545 92.4032C635.285 94.7804 633.178 97.8057 631.226 101.479C629.236 105.223 627.941 108.725 627.34 111.984C626.794 115.228 626.877 118.012 627.589 120.338C628.354 122.648 629.673 124.3 631.545 125.295C633.523 126.346 635.658 126.462 637.951 125.643C640.28 124.842 642.574 123.253 644.834 120.875C647.148 118.482 649.272 115.466 651.206 111.828C653.215 108.048 654.493 104.537 655.039 101.294C655.62 98.0698 655.528 95.3029 654.762 92.9933C654.051 90.6673 652.759 89.0067 650.887 88.0117Z" fill="#006B2D"/>
<path d="M707.448 122.958C706.305 124.306 705.228 125.627 704.219 126.922C703.243 128.241 702.501 129.26 701.995 129.979C701.535 130.634 701.114 131.267 700.732 131.879C700.351 132.49 700.038 133.004 699.795 133.42L698.666 132.626C699.921 129.938 700.655 127.643 700.87 125.74C701.14 123.826 700.947 122.224 700.291 120.931C699.659 119.605 698.655 118.459 697.281 117.493L695.858 116.492C694.877 115.801 694.083 115.365 693.477 115.183C692.904 115.025 692.363 115.133 691.855 115.509C691.369 115.852 690.758 116.547 690.021 117.593L672.483 142.522C671.309 144.191 670.678 145.434 670.591 146.253C670.56 147.063 671.133 147.882 672.311 148.71C673.946 149.861 675.459 150.387 676.849 150.289C678.261 150.158 679.631 149.532 680.958 148.411C682.284 147.29 683.603 145.798 684.915 143.933C686.273 142.003 687.246 140.168 687.833 138.43C688.453 136.714 688.533 135.107 688.071 133.608C687.632 132.077 686.48 130.655 684.616 129.343C684.158 129.021 683.601 128.63 682.947 128.169C682.326 127.732 681.693 127.311 681.048 126.907C680.459 126.492 679.936 126.124 679.478 125.802L680.168 124.82C681.28 125.603 682.376 126.374 683.456 127.133C684.591 127.883 685.535 128.523 686.288 129.052C688.937 130.917 690.971 132.788 692.389 134.665C693.807 136.543 694.71 138.353 695.099 140.094C695.544 141.825 695.575 143.485 695.191 145.073C694.807 146.661 694.143 148.126 693.199 149.468C691.887 151.332 690.205 152.716 688.151 153.619C686.121 154.489 683.741 154.674 681.013 154.172C678.34 153.661 675.335 152.232 671.998 149.884C671.18 149.309 670.194 148.59 669.039 147.729C667.885 146.868 666.408 145.804 664.608 144.538C663.431 143.71 662.127 142.817 660.697 141.86C659.323 140.893 658.204 140.155 657.34 139.645L658.031 138.664C659.091 139.312 659.952 139.722 660.613 139.894C661.307 140.089 661.944 139.949 662.521 139.475C663.132 139.025 663.852 138.21 664.68 137.033L681.804 112.693C682.656 111.483 683.179 110.53 683.374 109.836C683.625 109.132 683.558 108.498 683.172 107.933C682.81 107.336 682.117 106.653 681.093 105.883L681.783 104.902C683.527 106.178 685.418 107.557 687.456 109.04C689.494 110.522 691.429 111.908 693.261 113.197C695.093 114.486 696.565 115.522 697.677 116.304C699.084 117.294 700.687 118.422 702.486 119.688C704.309 120.921 705.963 122.011 707.448 122.958Z" fill="#006B2D"/>
<path d="M741.447 151.231L740.641 152.12C739.577 151.209 738.685 150.615 737.963 150.339C737.269 150.033 736.591 150.066 735.929 150.438C735.295 150.78 734.48 151.499 733.486 152.595L713.489 174.637C712.119 176.147 711.34 177.304 711.152 178.106C711.021 178.905 711.504 179.802 712.6 180.796C714.051 182.113 715.486 182.794 716.904 182.838C718.322 182.883 719.745 182.445 721.173 181.526C722.628 180.578 724.121 179.259 725.653 177.57C727.185 175.882 728.35 174.211 729.147 172.558C730.001 170.902 730.32 169.301 730.103 167.754C729.886 166.207 728.963 164.695 727.334 163.217C726.534 162.491 725.676 161.74 724.76 160.963C723.901 160.184 723.161 159.512 722.538 158.947L723.3 158.018C724.308 158.932 725.3 159.832 726.278 160.719C727.312 161.604 728.169 162.355 728.851 162.973C731.25 165.15 733.038 167.258 734.213 169.296C735.415 171.305 736.102 173.197 736.273 174.972C736.501 176.745 736.34 178.382 735.79 179.881C735.24 181.38 734.427 182.722 733.352 183.907C732.223 185.151 730.898 186.136 729.376 186.862C727.88 187.557 726.226 187.893 724.412 187.868C722.599 187.843 720.664 187.356 718.607 186.408C716.55 185.461 714.382 183.952 712.1 181.883C711.419 181.264 710.529 180.43 709.43 179.379C708.361 178.355 707.1 177.184 705.649 175.867C704.434 174.766 703.191 173.665 701.92 172.566C700.676 171.437 699.642 170.553 698.818 169.913L699.624 169.024C700.596 169.798 701.4 170.311 702.035 170.564C702.67 170.816 703.319 170.756 703.98 170.384C704.642 170.012 705.456 169.293 706.424 168.226L729.766 142.497L728.255 141.126C726.922 139.917 725.438 139.083 723.801 138.625C722.194 138.193 720.416 138.308 718.466 138.969C716.572 139.627 714.444 140.991 712.081 143.06L711.059 142.133C712.062 141.206 713.289 139.943 714.74 138.343C715.304 137.721 716.081 136.805 717.07 135.596C718.089 134.414 719.09 133.162 720.073 131.84C721.619 133.35 723.356 135.007 725.285 136.811C727.24 138.585 729.047 140.224 730.706 141.729C731.565 142.509 732.617 143.463 733.861 144.592C735.105 145.72 736.393 146.861 737.723 148.014C739.083 149.194 740.324 150.266 741.447 151.231Z" fill="#006B2D"/>
<path d="M783.044 195.216C781.605 196.242 780.238 197.26 778.943 198.268C777.673 199.308 776.705 200.114 776.038 200.688C775.432 201.21 774.868 201.72 774.349 202.22C773.829 202.72 773.4 203.142 773.062 203.485L772.162 202.439C774.115 200.231 775.455 198.261 776.181 196.529C776.937 194.771 777.129 193.154 776.758 191.68C776.443 190.209 775.699 188.792 774.525 187.427L772.921 185.562C772.138 184.653 771.475 184.036 770.932 183.711C770.416 183.417 769.865 183.39 769.279 183.629C768.724 183.843 767.962 184.367 766.991 185.202L743.338 205.547C742.398 206.356 741.765 207.032 741.441 207.575C741.116 208.117 741.061 208.666 741.274 209.221C741.514 209.807 742.025 210.554 742.808 211.464L744.725 213.693C745.899 215.058 747.217 216.008 748.68 216.543C750.2 217.083 751.985 217.103 754.036 216.605C756.114 216.137 758.535 215.057 761.3 213.365L762.2 214.411C761.151 215.155 759.838 216.205 758.262 217.561C757.564 218.161 756.592 219.024 755.344 220.15C754.096 221.276 752.856 222.501 751.621 223.827C750.352 222.228 748.882 220.458 747.213 218.517C745.574 216.551 744.102 214.809 742.798 213.293C741.911 212.262 740.737 210.897 739.276 209.199C737.816 207.501 736.249 205.709 734.575 203.825C732.932 201.914 731.375 200.166 729.906 198.581L730.816 197.799C731.711 198.717 732.459 199.34 733.058 199.669C733.657 199.998 734.295 200.003 734.971 199.685C735.674 199.398 736.571 198.784 737.662 197.845L760.224 178.439C761.346 177.474 762.087 176.678 762.446 176.053C762.861 175.432 762.938 174.785 762.677 174.113C762.472 173.445 761.98 172.628 761.202 171.662L762.112 170.88C763.49 172.543 764.985 174.343 766.598 176.28C768.211 178.217 769.748 180.034 771.209 181.732C772.67 183.43 773.843 184.795 774.73 185.826C775.93 187.221 777.286 188.798 778.799 190.557C780.369 192.32 781.784 193.873 783.044 195.216ZM761.384 201.501C761.384 201.501 761.232 201.631 760.929 201.892C760.625 202.153 760.474 202.283 760.474 202.283L753.627 194.323C753.627 194.323 753.778 194.192 754.082 193.932C754.385 193.671 754.536 193.54 754.536 193.54L761.384 201.501ZM768.523 197.655C766.69 199.021 765.318 200.095 764.409 200.877C763.525 201.69 762.704 202.423 761.946 203.075C761.188 203.727 760.367 204.459 759.483 205.272C758.6 206.085 757.346 207.295 755.722 208.904L754.822 207.857C755.753 206.793 756.49 205.657 757.035 204.45C757.606 203.273 757.838 202.071 757.732 200.843C757.656 199.59 757.096 198.356 756.053 197.143L756.962 196.361C758.006 197.574 759.174 198.257 760.467 198.411C761.76 198.565 763.031 198.448 764.28 198.06C765.559 197.645 766.674 197.162 767.623 196.609L768.523 197.655Z" fill="#006B2D"/>
<path d="M812.064 235.448L811.072 236.122C810.274 235.02 809.557 234.25 808.921 233.812C808.34 233.384 807.685 233.274 806.954 233.48C806.257 233.664 805.296 234.172 804.072 235.004L779.46 251.733C777.64 252.97 776.623 254 776.409 254.823C776.227 255.623 776.665 256.801 777.722 258.356L778.734 259.844C777.354 260.589 776.046 261.333 774.81 262.076C773.596 262.853 772.675 263.454 772.047 263.882C770.723 264.781 769.682 265.561 768.922 266.223L768.147 265.082C770.105 263.267 771.482 261.557 772.278 259.952C773.04 258.37 773.292 256.82 773.035 255.302C772.799 253.818 772.153 252.298 771.097 250.743L762.934 238.735C761.877 237.18 760.691 236.003 759.374 235.205C758.081 234.44 756.558 234.121 754.806 234.248C753.021 234.397 750.925 235.048 748.516 236.201L747.741 235.06C748.635 234.597 749.744 233.916 751.067 233.017C751.696 232.589 752.583 231.938 753.729 231.062C754.897 230.22 756.082 229.294 757.282 228.285L767.097 242.725C768.244 244.412 769.234 245.335 770.068 245.494C770.934 245.63 772.277 245.08 774.097 243.843L798.709 227.114C800.529 225.877 801.507 224.825 801.643 223.959C801.835 223.103 801.504 222.046 800.649 220.789L800.211 220.144C799.739 219.449 799.241 218.966 798.717 218.693C798.226 218.398 797.588 218.348 796.802 218.544C796.071 218.75 795.077 219.208 793.819 219.918C791.434 221.249 788.835 222.726 786.02 224.349C783.228 226.005 780.385 227.55 777.491 228.985C774.653 230.431 771.906 231.548 769.25 232.337C766.617 233.16 764.234 233.425 762.102 233.134C759.969 232.842 758.25 231.737 756.946 229.819L757.889 229.178C758.923 230.699 760.352 231.591 762.173 231.852C764.028 232.09 766.145 231.861 768.524 231.162C770.903 230.464 773.457 229.454 776.186 228.131C778.97 226.819 781.785 225.341 784.633 223.695C787.481 222.05 790.284 220.411 793.043 218.777C794.864 217.685 795.853 216.722 796.012 215.888C796.204 215.032 795.726 213.688 794.578 211.857L795.571 211.182C796.01 211.9 796.539 212.749 797.158 213.731C797.777 214.713 798.356 215.601 798.896 216.395C799.413 217.156 799.924 217.872 800.43 218.544C800.99 219.227 801.518 219.932 802.013 220.66C802.867 221.917 803.61 223.081 804.241 224.152C804.905 225.2 805.72 226.435 806.687 227.857C807.249 228.684 807.857 229.578 808.509 230.537C809.216 231.507 809.862 232.422 810.447 233.282C811.087 234.153 811.626 234.875 812.064 235.448Z" fill="#006B2D"/>
<path d="M827.209 261.704L826.14 262.249C825.523 261.127 824.945 260.344 824.405 259.901C823.9 259.44 823.273 259.266 822.522 259.379C821.826 259.509 820.818 259.91 819.5 260.582L792.984 274.095C791.701 274.749 790.784 275.328 790.234 275.833C789.701 276.374 789.473 276.984 789.55 277.663C789.627 278.343 789.92 279.271 790.43 280.447L789.361 280.992C788.942 279.994 788.36 278.764 787.615 277.302C786.906 275.823 786.17 274.335 785.407 272.838C784.517 271.092 783.673 269.479 782.875 268.001C782.13 266.539 781.486 265.364 780.943 264.473L782.012 263.929C782.646 264.997 783.215 265.762 783.72 266.223C784.242 266.72 784.87 266.894 785.602 266.745C786.353 266.632 787.369 266.249 788.652 265.595L815.168 252.083C816.487 251.411 817.394 250.813 817.891 250.291C818.442 249.786 818.67 249.176 818.575 248.461C818.534 247.763 818.249 246.853 817.722 245.73L818.791 245.185C819.228 246.13 819.801 247.342 820.51 248.822C821.237 250.337 822.045 251.967 822.935 253.714C823.698 255.21 824.47 256.68 825.25 258.123C826.03 259.566 826.683 260.76 827.209 261.704ZM830.535 275.498C830.535 275.498 830.339 275.598 829.947 275.798C829.591 275.979 829.216 276.17 828.824 276.37C828.45 276.605 828.264 276.723 828.264 276.723L788.96 274.26L790.212 273.016L830.535 275.498ZM839.305 285.44L838.236 285.985C837.619 284.862 837.041 284.08 836.501 283.636C835.996 283.175 835.369 283.001 834.618 283.114C833.922 283.245 832.914 283.646 831.595 284.318L805.08 297.831C803.797 298.484 802.88 299.064 802.329 299.569C801.797 300.11 801.569 300.72 801.646 301.399C801.723 302.078 802.016 303.006 802.526 304.183L801.457 304.728C801.056 303.765 800.474 302.535 799.711 301.038C798.984 299.523 798.184 297.91 797.313 296.2C796.55 294.703 795.769 293.215 794.971 291.736C794.226 290.275 793.582 289.099 793.038 288.209L794.108 287.664C794.742 288.733 795.311 289.498 795.816 289.959C796.32 290.42 796.948 290.594 797.698 290.481C798.449 290.368 799.465 289.985 800.748 289.331L827.264 275.818C828.582 275.146 829.49 274.549 829.987 274.026C830.52 273.486 830.747 272.876 830.671 272.196C830.63 271.499 830.345 270.589 829.818 269.466L830.887 268.921C831.324 269.866 831.897 271.078 832.606 272.557C833.333 274.072 834.078 275.578 834.84 277.075C835.712 278.786 836.547 280.38 837.346 281.859C838.144 283.338 838.797 284.531 839.305 285.44Z" fill="#006B2D"/>
<path d="M813.227 335.596L814.361 335.204C814.855 336.388 815.319 337.243 815.755 337.77C816.191 338.296 816.782 338.536 817.528 338.49C818.287 338.482 819.347 338.243 820.708 337.773L848.838 328.06C850.237 327.577 851.218 327.111 851.783 326.662C852.398 326.238 852.708 325.665 852.713 324.944C852.769 324.248 852.613 323.307 852.246 322.122L853.381 321.73C853.695 322.764 854.115 324.101 854.638 325.739C855.175 327.416 855.724 329.067 856.285 330.693C856.886 332.432 857.466 334.052 858.026 335.551C858.599 337.088 859.068 338.323 859.432 339.255L858.298 339.647C857.842 338.45 857.371 337.576 856.884 337.024C856.449 336.498 855.858 336.257 855.112 336.303C854.404 336.336 853.351 336.594 851.952 337.077L823.821 346.791C822.46 347.261 821.472 347.708 820.857 348.132C820.255 348.594 819.945 349.166 819.927 349.85C819.909 350.533 820.071 351.493 820.413 352.729L819.279 353.12C819.028 352.149 818.635 350.888 818.099 349.338C817.615 347.812 817.073 346.18 816.472 344.441C815.911 342.815 815.324 341.177 814.711 339.526C814.15 337.901 813.655 336.59 813.227 335.596ZM804.924 311.549L806.058 311.157C806.551 312.341 807.016 313.196 807.452 313.723C807.887 314.249 808.478 314.49 809.224 314.444C809.983 314.436 811.043 314.197 812.404 313.727L840.534 304.013C841.933 303.53 842.915 303.064 843.479 302.615C844.095 302.191 844.405 301.619 844.41 300.897C844.465 300.201 844.31 299.26 843.943 298.075L845.077 297.684C845.379 298.68 845.778 299.959 846.276 301.523C846.786 303.124 847.362 304.85 848.001 306.703C848.55 308.291 849.11 309.854 849.683 311.391C850.257 312.928 850.738 314.2 851.129 315.208L849.994 315.6C849.539 314.403 849.068 313.529 848.581 312.977C848.145 312.451 847.554 312.211 846.809 312.257C846.101 312.289 845.047 312.547 843.648 313.03L815.518 322.744C814.157 323.214 813.169 323.661 812.553 324.085C811.951 324.547 811.641 325.12 811.623 325.803C811.605 326.486 811.767 327.446 812.109 328.682L810.975 329.073C810.698 328.027 810.292 326.728 809.757 325.178C809.259 323.615 808.736 322.039 808.188 320.451C807.548 318.598 806.935 316.884 806.349 315.31C805.814 313.759 805.339 312.506 804.924 311.549ZM827.856 314.358L828.991 313.966L836.726 336.368L835.592 336.76L827.856 314.358Z" fill="#006B2D"/>
<path d="M870.813 388.972L869.638 389.214C869.341 387.968 868.991 387.06 868.587 386.49C868.223 385.912 867.664 385.577 866.911 385.487C866.204 385.429 865.126 385.549 863.677 385.847L834.528 391.847C833.118 392.138 832.08 392.454 831.415 392.795C830.758 393.175 830.377 393.703 830.271 394.378C830.165 395.053 830.202 396.026 830.381 397.295L829.206 397.537C829.083 396.542 828.848 395.202 828.501 393.517C828.201 391.863 827.858 390.096 827.471 388.216C827.14 386.609 826.786 384.988 826.408 383.35C826.069 381.705 825.756 380.381 825.468 379.378L826.643 379.136C826.971 380.335 827.318 381.223 827.682 381.802C828.054 382.419 828.613 382.753 829.358 382.804C830.112 382.894 831.194 382.794 832.604 382.503L861.753 376.503C863.791 376.083 865.094 375.57 865.663 374.963C866.24 374.395 866.372 373.347 866.057 371.819C865.509 369.155 864.279 367.448 862.369 366.697C860.458 365.947 857.995 365.883 854.978 366.504C853.137 366.883 851.496 367.445 850.057 368.19C848.657 368.928 847.631 369.997 846.98 371.397C846.368 372.789 846.3 374.64 846.776 376.952L847.817 382.006C847.817 382.006 847.621 382.046 847.229 382.127C846.837 382.208 846.641 382.248 846.641 382.248L845.48 376.606C844.528 371.983 844.319 368.289 844.853 365.525C845.386 362.761 846.41 360.692 847.924 359.318C849.446 357.984 851.167 357.119 853.087 356.724C856.457 356.03 859.336 356.826 861.726 359.111C864.124 361.435 865.887 365.34 867.016 370.825C867.17 371.569 867.404 372.808 867.72 374.539C868.044 376.311 868.403 378.156 868.798 380.076C869.137 381.721 869.495 383.363 869.873 385C870.259 386.677 870.573 388.001 870.813 388.972ZM847.568 381.69L846.544 381.778L845.238 375.431C844.988 374.216 844.418 373.333 843.528 372.781C842.686 372.26 841.598 371.933 840.263 371.799C838.968 371.657 837.47 371.619 835.768 371.683L829.673 371.835C827.155 371.904 825.305 371.346 824.121 370.16C822.938 368.975 822.133 367.343 821.705 365.267C821.358 363.582 821.334 362.076 821.633 360.749C821.892 359.429 822.524 358.135 823.529 356.867L824.404 357.544C824.053 358.025 823.793 358.446 823.622 358.808C823.499 359.201 823.47 359.656 823.536 360.173C823.689 360.918 824.119 361.421 824.827 361.684C825.534 361.947 826.704 362.073 828.336 362.064L834.643 362.052C837.255 362.046 839.295 362.83 840.763 364.407C842.231 365.983 843.527 368.412 844.652 371.692C844.923 372.412 845.174 373.137 845.406 373.865C845.637 374.593 845.917 375.556 846.246 376.755C846.621 377.984 847.062 379.629 847.568 381.69Z" fill="#006B2D"/>
<path d="M874.425 417.754L873.229 417.845C873.091 416.572 872.859 415.627 872.531 415.01C872.243 414.39 871.731 413.988 870.995 413.803C870.302 413.656 869.217 413.638 867.741 413.751L838.068 416.012C836.632 416.122 835.562 416.304 834.86 416.558C834.16 416.852 833.715 417.327 833.524 417.983C833.333 418.64 833.247 419.609 833.264 420.891L832.068 420.983C832.066 419.9 832.002 418.541 831.877 416.905C831.793 415.267 831.687 413.61 831.559 411.935C831.41 409.981 831.252 408.168 831.084 406.496C830.959 404.86 830.818 403.527 830.659 402.496L831.855 402.405C832.029 403.635 832.26 404.561 832.548 405.18C832.839 405.84 833.351 406.242 834.084 406.387C834.821 406.572 835.907 406.609 837.342 406.5L867.016 404.238C868.492 404.126 869.56 403.924 870.22 403.633C870.922 403.379 871.368 402.904 871.555 402.207C871.786 401.548 871.874 400.598 871.819 399.359L873.016 399.268C873.055 400.308 873.117 401.647 873.202 403.285C873.29 404.963 873.408 406.78 873.557 408.734C873.685 410.409 873.831 412.063 873.995 413.695C874.16 415.327 874.303 416.68 874.425 417.754ZM872.183 431.765C872.183 431.765 871.964 431.782 871.525 431.815C871.126 431.846 870.708 431.878 870.269 431.911C869.833 431.984 869.615 432.021 869.615 432.021L834.29 414.615L835.925 413.949L872.183 431.765ZM876.45 444.317L875.253 444.408C875.116 443.135 874.883 442.19 874.556 441.573C874.268 440.953 873.756 440.551 873.019 440.366C872.326 440.219 871.242 440.201 869.766 440.314L840.092 442.575C838.656 442.685 837.587 442.866 836.884 443.121C836.185 443.415 835.739 443.89 835.549 444.546C835.358 445.203 835.272 446.172 835.289 447.454L834.093 447.546C834.093 446.503 834.03 445.143 833.902 443.468C833.814 441.79 833.697 439.994 833.552 438.079C833.424 436.404 833.276 434.731 833.109 433.058C832.984 431.423 832.842 430.09 832.683 429.059L833.88 428.968C834.054 430.198 834.285 431.123 834.573 431.743C834.861 432.363 835.373 432.766 836.109 432.95C836.845 433.135 837.931 433.172 839.367 433.063L869.041 430.801C870.517 430.689 871.585 430.487 872.244 430.196C872.944 429.902 873.389 429.427 873.58 428.77C873.81 428.111 873.898 427.161 873.844 425.922L875.041 425.831C875.08 426.871 875.142 428.21 875.226 429.848C875.314 431.526 875.422 433.203 875.55 434.878C875.696 436.793 875.852 438.586 876.02 440.258C876.187 441.93 876.331 443.283 876.45 444.317ZM889.625 430.075C889.729 431.431 889.435 432.576 888.744 433.512C888.096 434.484 887.194 435.014 886.037 435.102C885.08 435.175 884.216 434.9 883.447 434.276C882.68 433.693 881.977 432.884 881.336 431.85C880.693 430.776 880.083 429.358 879.508 427.596C878.972 425.832 878.616 423.793 878.44 421.48C878.263 419.167 878.306 417.097 878.568 415.272C878.87 413.444 879.258 411.95 879.731 410.791C880.171 409.714 880.723 408.81 881.39 408.077C882.059 407.384 882.892 407 883.889 406.924C885.006 406.838 885.977 407.206 886.801 408.025C887.626 408.845 888.092 409.953 888.198 411.349C888.301 412.705 888.009 413.871 887.321 414.846C886.676 415.858 885.756 416.409 884.559 416.5C883.522 416.579 882.656 416.264 881.96 415.555C881.267 414.886 880.743 414.063 880.388 413.088C879.957 414.284 879.702 415.667 879.621 417.238C879.54 418.809 879.545 420.192 879.636 421.389C879.728 422.585 879.932 423.954 880.25 425.494C880.568 427.034 881.049 428.341 881.692 429.416C881.853 428.36 882.226 427.469 882.812 426.743C883.439 426.013 884.251 425.61 885.248 425.534C886.444 425.443 887.436 425.829 888.224 426.691C889.052 427.551 889.519 428.679 889.625 430.075Z" fill="#006B2D"/>
<path d="M874.93 495.688C872.902 495.416 870.952 495.188 869.079 495.005C867.204 494.861 865.767 494.762 864.769 494.707C863.89 494.658 863.05 494.632 862.249 494.628C861.448 494.624 860.767 494.627 860.206 494.636L860.282 493.258C863.672 492.804 866.373 492.131 868.385 491.241C870.395 490.39 871.837 489.308 872.71 487.994C873.624 486.682 874.131 485.108 874.232 483.27L874.308 481.892L840.1 480.007C838.503 479.919 837.296 480.013 836.479 480.288C835.661 480.604 835.086 481.213 834.756 482.116C834.466 483.022 834.252 484.352 834.116 486.107L832.917 486.041C833.026 484.805 833.157 483.15 833.311 481.075C833.463 479.04 833.601 476.905 833.724 474.668C833.846 472.471 833.94 470.393 834.008 468.434C834.076 466.475 834.123 464.895 834.149 463.695L835.347 463.761C835.288 465.56 835.353 466.926 835.542 467.858C835.771 468.792 836.276 469.441 837.057 469.804C837.838 470.168 839.028 470.393 840.625 470.481L874.833 472.367L874.906 471.049C875.007 469.212 874.676 467.591 873.912 466.187C873.188 464.785 871.874 463.551 869.97 462.484C868.106 461.42 865.496 460.435 862.141 459.529L862.217 458.151C862.771 458.262 863.448 458.339 864.247 458.383C865.044 458.467 865.881 458.533 866.76 458.582C867.758 458.637 869.198 458.676 871.08 458.7C872.959 458.763 874.922 458.771 876.967 458.724C876.826 460.559 876.676 462.553 876.517 464.708C876.356 466.902 876.215 469.098 876.094 471.295C875.973 473.491 875.864 475.468 875.767 477.226C875.668 479.023 875.559 481 875.441 483.157C875.319 485.353 875.218 487.551 875.137 489.75C875.056 491.949 874.987 493.928 874.93 495.688Z" fill="#006B2D"/>
<path d="M868.568 539.724C866.86 539.268 865.205 538.862 863.602 538.506C861.992 538.189 860.754 537.956 859.887 537.807C859.098 537.672 858.346 537.563 857.629 537.48C856.913 537.398 856.315 537.336 855.835 537.294L856.069 535.934C859.014 536.034 861.386 535.812 863.184 535.268C865.021 534.732 866.39 533.851 867.29 532.625C868.223 531.446 868.842 529.97 869.147 528.196L869.563 525.771C869.766 524.588 869.82 523.684 869.724 523.059C869.622 522.473 869.292 522.031 868.735 521.733C868.217 521.441 867.327 521.186 866.065 520.97L835.315 515.69C834.093 515.48 833.169 515.423 832.544 515.519C831.919 515.614 831.46 515.921 831.169 516.439C830.87 516.997 830.619 517.867 830.416 519.049L829.918 521.947C829.614 523.721 829.721 525.342 830.24 526.811C830.791 528.327 831.912 529.716 833.603 530.981C835.287 532.284 837.661 533.463 840.727 534.517L840.494 535.877C839.252 535.543 837.607 535.199 835.557 534.847C834.65 534.691 833.365 534.491 831.703 534.246C830.04 534.001 828.305 533.825 826.497 533.718C826.921 531.721 827.35 529.461 827.783 526.938C828.256 524.421 828.661 522.177 829 520.206C829.23 518.866 829.535 517.092 829.914 514.884C830.293 512.677 830.676 510.327 831.063 507.837C831.489 505.353 831.846 503.04 832.132 500.898L833.315 501.101C833.177 502.376 833.173 503.349 833.301 504.021C833.429 504.692 833.831 505.187 834.507 505.506C835.176 505.865 836.22 506.166 837.639 506.409L866.97 511.446C868.429 511.696 869.513 511.761 870.224 511.639C870.968 511.564 871.515 511.211 871.867 510.582C872.251 509.998 872.568 509.099 872.817 507.884L874 508.087C873.595 510.209 873.159 512.508 872.694 514.985C872.228 517.462 871.805 519.804 871.426 522.012C871.047 524.22 870.742 525.994 870.512 527.334C870.201 529.148 869.849 531.198 869.456 533.484C869.096 535.817 868.8 537.897 868.568 539.724ZM849.928 527.026C849.928 527.026 849.73 526.992 849.336 526.925C848.942 526.857 848.745 526.823 848.745 526.823L850.522 516.475C850.522 516.475 850.719 516.508 851.113 516.576C851.507 516.644 851.704 516.678 851.704 516.678L849.928 527.026ZM857.439 530.081C855.219 529.538 853.517 529.165 852.335 528.962C851.145 528.798 850.058 528.631 849.072 528.462C848.087 528.293 846.999 528.127 845.81 527.963C844.62 527.799 842.888 527.603 840.614 527.375L840.848 526.015C842.261 526.055 843.607 525.9 844.884 525.552C846.155 525.242 847.23 524.656 848.109 523.792C849.027 522.935 849.621 521.718 849.892 520.141L851.075 520.344C850.804 521.921 851.021 523.257 851.726 524.352C852.431 525.447 853.331 526.352 854.425 527.068C855.559 527.79 856.642 528.341 857.672 528.721L857.439 530.081Z" fill="#006B2D"/>
<path d="M859.883 577.869C859.125 580.398 858.121 582.352 856.872 583.732C855.65 585.161 854.352 586.358 852.976 587.324C852.172 587.918 851.923 588.47 852.229 588.979C852.563 589.539 853.53 590.142 855.132 590.789L854.736 592.111C853.264 591.586 851.462 590.983 849.327 590.301C847.232 589.631 844.421 588.768 840.896 587.711L841.293 586.389C843.113 586.726 844.682 586.925 846 586.986C847.356 587.058 848.593 586.97 849.712 586.721C850.831 586.472 851.923 585.964 852.988 585.198C854.233 584.527 855.275 583.628 856.114 582.502C856.952 581.375 857.579 580.122 857.992 578.743C858.613 576.674 858.586 574.745 857.911 572.956C857.275 571.178 856.156 569.548 854.554 568.066C852.941 566.621 851.01 565.333 848.761 564.199C846.55 563.076 844.18 562.136 841.651 561.378C839.084 560.608 836.55 560.078 834.048 559.787C831.573 559.546 829.278 559.61 827.163 559.978C825.037 560.384 823.213 561.174 821.692 562.346C820.171 563.519 819.107 565.12 818.498 567.151C818.118 568.415 817.969 569.749 818.05 571.151C818.157 572.603 818.533 573.927 819.177 575.122C819.878 576.961 820.991 578.401 822.516 579.443C824.08 580.497 826.239 581.583 828.994 582.701L828.597 584.023C824.957 582.931 822.001 582.066 819.729 581.426C817.496 580.798 815.601 580.293 814.045 579.91L814.442 578.588C816.135 578.929 817.25 578.971 817.787 578.714C818.311 578.496 818.432 577.884 818.148 576.881C817.577 575.164 817.15 573.387 816.866 571.548C816.609 569.759 816.854 567.619 817.601 565.128C818.819 561.067 820.711 557.751 823.277 555.18C825.833 552.647 828.915 551.003 832.524 550.247C836.133 549.492 840.121 549.769 844.489 551.079C848.78 552.366 852.276 554.354 854.978 557.043C857.668 559.77 859.459 562.918 860.353 566.484C861.234 570.09 861.078 573.885 859.883 577.869Z" fill="#006B2D"/>
<path d="M843.357 621.365L842.255 620.89C842.773 619.588 843.046 618.552 843.074 617.78C843.139 617.024 842.888 616.393 842.322 615.887C841.793 615.398 840.849 614.86 839.49 614.273L812.163 602.487C810.29 601.679 808.944 601.316 808.124 601.398C807.325 601.533 806.633 602.279 806.047 603.638C805.271 605.438 805.091 607.016 805.508 608.372C805.925 609.728 806.799 610.933 808.131 611.987C809.499 613.056 811.23 614.042 813.324 614.945C815.417 615.848 817.375 616.409 819.197 616.629C821.04 616.901 822.658 616.684 824.052 615.979C825.445 615.273 826.578 613.91 827.449 611.89C827.877 610.898 828.31 609.843 828.748 608.726C829.208 607.66 829.612 606.724 829.96 605.916L831.062 606.391C830.524 607.64 829.993 608.87 829.47 610.082C828.968 611.347 828.535 612.402 828.171 613.247C826.444 617.25 824.567 620.187 822.541 622.057C820.535 623.98 818.474 625.073 816.356 625.336C814.239 625.599 812.17 625.295 810.15 624.423C808.571 623.742 807.173 622.791 805.958 621.57C804.742 620.348 803.842 618.849 803.258 617.073C802.695 615.348 802.51 613.352 802.705 611.084C802.936 608.831 803.653 606.309 804.857 603.518C805.222 602.673 805.723 601.56 806.362 600.181C806.985 598.837 807.693 597.248 808.485 595.411C809.118 593.942 809.757 592.41 810.402 590.815C811.067 589.272 811.561 588.026 811.884 587.076L812.986 587.551C812.568 588.721 812.343 589.648 812.31 590.331C812.261 591.05 812.527 591.644 813.109 592.113C813.675 592.619 814.619 593.157 815.942 593.727L843.268 605.514C844.627 606.1 845.666 606.417 846.386 606.466C847.126 606.568 847.741 606.354 848.231 605.824C848.741 605.348 849.26 604.548 849.788 603.425L850.89 603.9C850.457 604.803 849.89 606.017 849.188 607.544C848.47 609.108 847.731 610.771 846.97 612.534C846.273 614.15 845.602 615.756 844.958 617.351C844.298 618.983 843.764 620.321 843.357 621.365Z" fill="#006B2D"/>
<path d="M831.865 655.836C831.256 656.961 830.256 657.717 828.865 658.101C827.51 658.505 826.006 658.26 824.352 657.365C822.839 656.546 821.228 655.447 819.519 654.068C817.809 652.688 815.98 651.152 814.03 649.461C812.115 647.788 810.049 646.102 807.83 644.401C805.612 642.701 803.23 641.094 800.684 639.58L801.198 638.63C803.839 639.968 806.488 641.083 809.144 641.974C811.781 642.9 814.323 643.707 816.771 644.395C819.234 645.137 821.521 645.828 823.63 646.469C825.72 647.145 827.522 647.892 829.034 648.71C830.688 649.605 831.736 650.695 832.177 651.98C832.635 653.319 832.531 654.604 831.865 655.836ZM797.986 637.506C797.243 638.878 796.284 639.769 795.107 640.178C793.966 640.607 792.762 640.478 791.495 639.793C790.229 639.108 789.445 638.161 789.144 636.952C788.878 635.762 789.116 634.481 789.859 633.109C790.601 631.737 791.543 630.837 792.684 630.408C793.861 629.999 795.082 630.137 796.349 630.822C797.615 631.507 798.382 632.445 798.647 633.635C798.948 634.843 798.728 636.134 797.986 637.506Z" fill="#006B2D"/>
<path d="M659 232.289H259V632.289H659V232.289Z" fill="#FF3502"/>
<path d="M459.132 211L247 423.132L459.132 635.264L671.264 423.132L459.132 211Z" fill="#006B2D" stroke="#006B2D" stroke-width="30"/>
<path d="M377.116 552.25C376.08 552.25 375.138 552.054 374.293 551.664C373.448 551.266 372.777 550.694 372.28 549.948C371.783 549.196 371.534 548.286 371.534 547.221C371.534 546.284 371.719 545.524 372.088 544.941C372.457 544.352 372.951 543.89 373.569 543.556C374.187 543.223 374.869 542.974 375.614 542.811C376.367 542.64 377.124 542.505 377.884 542.406C378.878 542.278 379.684 542.182 380.302 542.118C380.927 542.047 381.381 541.93 381.665 541.767C381.957 541.603 382.102 541.319 382.102 540.914V540.829C382.102 539.778 381.815 538.961 381.239 538.379C380.671 537.796 379.808 537.505 378.651 537.505C377.45 537.505 376.509 537.768 375.827 538.294C375.146 538.819 374.666 539.38 374.389 539.977L372.003 539.125C372.429 538.13 372.997 537.356 373.707 536.802C374.425 536.241 375.206 535.85 376.051 535.63C376.903 535.403 377.741 535.289 378.565 535.289C379.091 535.289 379.695 535.353 380.376 535.481C381.065 535.602 381.729 535.854 382.369 536.237C383.015 536.621 383.551 537.2 383.977 537.974C384.403 538.748 384.616 539.785 384.616 541.085V551.866H382.102V549.65H381.974C381.804 550.005 381.52 550.385 381.122 550.79C380.724 551.195 380.195 551.539 379.535 551.823C378.874 552.107 378.068 552.25 377.116 552.25ZM377.5 549.991C378.494 549.991 379.332 549.796 380.014 549.405C380.703 549.014 381.222 548.51 381.57 547.892C381.925 547.274 382.102 546.625 382.102 545.943V543.642C381.996 543.769 381.761 543.887 381.399 543.993C381.044 544.093 380.632 544.181 380.163 544.259C379.702 544.33 379.251 544.394 378.81 544.451C378.377 544.501 378.026 544.544 377.756 544.579C377.102 544.664 376.491 544.803 375.923 544.995C375.362 545.179 374.908 545.46 374.56 545.836C374.219 546.205 374.048 546.71 374.048 547.349C374.048 548.223 374.371 548.883 375.018 549.33C375.671 549.771 376.499 549.991 377.5 549.991ZM389.205 558.002V535.502H391.634V538.102H391.933C392.117 537.818 392.373 537.455 392.7 537.015C393.034 536.568 393.509 536.17 394.127 535.822C394.752 535.467 395.597 535.289 396.663 535.289C398.041 535.289 399.255 535.634 400.306 536.323C401.357 537.012 402.178 537.988 402.767 539.252C403.357 540.517 403.651 542.008 403.651 543.727C403.651 545.46 403.357 546.962 402.767 548.233C402.178 549.497 401.361 550.478 400.317 551.174C399.273 551.862 398.069 552.207 396.705 552.207C395.654 552.207 394.813 552.033 394.181 551.685C393.548 551.33 393.062 550.928 392.721 550.481C392.38 550.027 392.117 549.65 391.933 549.352H391.72V558.002H389.205ZM391.677 543.684C391.677 544.92 391.858 546.01 392.22 546.955C392.583 547.892 393.112 548.627 393.808 549.16C394.504 549.686 395.356 549.948 396.365 549.948C397.416 549.948 398.293 549.671 398.996 549.117C399.706 548.556 400.239 547.803 400.594 546.859C400.956 545.907 401.137 544.849 401.137 543.684C401.137 542.534 400.96 541.497 400.605 540.573C400.257 539.643 399.727 538.908 399.017 538.368C398.314 537.821 397.43 537.548 396.365 537.548C395.342 537.548 394.482 537.807 393.786 538.326C393.09 538.837 392.565 539.554 392.21 540.478C391.855 541.394 391.677 542.463 391.677 543.684ZM405.348 537.846V535.502H418.643V537.846H413.274V551.866H410.76V537.846H405.348ZM430.836 541.34V543.684H421.291V541.34H430.836ZM445.36 535.502V537.846H437.774V551.866H435.26V535.502H445.36ZM452.995 552.25C451.958 552.25 451.017 552.054 450.172 551.664C449.327 551.266 448.656 550.694 448.159 549.948C447.662 549.196 447.413 548.286 447.413 547.221C447.413 546.284 447.598 545.524 447.967 544.941C448.336 544.352 448.83 543.89 449.448 543.556C450.066 543.223 450.748 542.974 451.493 542.811C452.246 542.64 453.002 542.505 453.762 542.406C454.757 542.278 455.563 542.182 456.181 542.118C456.806 542.047 457.26 541.93 457.544 541.767C457.836 541.603 457.981 541.319 457.981 540.914V540.829C457.981 539.778 457.694 538.961 457.118 538.379C456.55 537.796 455.687 537.505 454.529 537.505C453.329 537.505 452.388 537.768 451.706 538.294C451.025 538.819 450.545 539.38 450.268 539.977L447.882 539.125C448.308 538.13 448.876 537.356 449.586 536.802C450.304 536.241 451.085 535.85 451.93 535.63C452.782 535.403 453.62 535.289 454.444 535.289C454.97 535.289 455.574 535.353 456.255 535.481C456.944 535.602 457.608 535.854 458.248 536.237C458.894 536.621 459.43 537.2 459.856 537.974C460.282 538.748 460.495 539.785 460.495 541.085V551.866H457.981V549.65H457.853C457.683 550.005 457.399 550.385 457.001 550.79C456.603 551.195 456.074 551.539 455.414 551.823C454.753 552.107 453.947 552.25 452.995 552.25ZM453.379 549.991C454.373 549.991 455.211 549.796 455.893 549.405C456.582 549.014 457.1 548.51 457.449 547.892C457.804 547.274 457.981 546.625 457.981 545.943V543.642C457.875 543.769 457.64 543.887 457.278 543.993C456.923 544.093 456.511 544.181 456.042 544.259C455.581 544.33 455.13 544.394 454.689 544.451C454.256 544.501 453.904 544.544 453.635 544.579C452.981 544.664 452.37 544.803 451.802 544.995C451.241 545.179 450.787 545.46 450.439 545.836C450.098 546.205 449.927 546.71 449.927 547.349C449.927 548.223 450.25 548.883 450.897 549.33C451.55 549.771 452.377 549.991 453.379 549.991ZM463.635 551.866V549.522H464.232C464.722 549.522 465.131 549.426 465.457 549.235C465.784 549.036 466.047 548.691 466.246 548.201C466.452 547.704 466.608 547.015 466.714 546.134C466.828 545.247 466.91 544.117 466.959 542.747L467.258 535.502H478.167V551.866H475.653V537.846H469.644L469.388 543.684C469.331 545.027 469.211 546.209 469.026 547.232C468.849 548.247 468.575 549.1 468.206 549.789C467.844 550.478 467.361 550.996 466.757 551.344C466.153 551.692 465.397 551.866 464.488 551.866H463.635ZM489.64 552.207C488.064 552.207 486.704 551.859 485.56 551.163C484.424 550.46 483.547 549.48 482.929 548.223C482.318 546.958 482.013 545.488 482.013 543.812C482.013 542.136 482.318 540.659 482.929 539.38C483.547 538.095 484.406 537.093 485.507 536.376C486.615 535.652 487.907 535.289 489.385 535.289C490.237 535.289 491.079 535.431 491.91 535.715C492.741 536 493.497 536.461 494.179 537.1C494.861 537.732 495.404 538.571 495.809 539.615C496.214 540.659 496.416 541.944 496.416 543.471V544.536H483.802V542.363H493.859C493.859 541.44 493.675 540.616 493.305 539.892C492.943 539.167 492.425 538.595 491.75 538.176C491.082 537.757 490.294 537.548 489.385 537.548C488.383 537.548 487.517 537.796 486.785 538.294C486.061 538.784 485.503 539.423 485.113 540.211C484.722 541 484.527 541.845 484.527 542.747V544.196C484.527 545.431 484.74 546.479 485.166 547.338C485.599 548.191 486.199 548.84 486.966 549.288C487.733 549.728 488.625 549.948 489.64 549.948C490.301 549.948 490.898 549.856 491.43 549.671C491.97 549.48 492.435 549.196 492.826 548.819C493.216 548.436 493.518 547.96 493.731 547.392L496.16 548.073C495.905 548.897 495.475 549.622 494.871 550.247C494.268 550.865 493.522 551.348 492.634 551.696C491.746 552.036 490.748 552.207 489.64 552.207ZM500.241 558.002V535.502H502.67V538.102H502.968C503.153 537.818 503.408 537.455 503.735 537.015C504.069 536.568 504.545 536.17 505.162 535.822C505.787 535.467 506.633 535.289 507.698 535.289C509.076 535.289 510.29 535.634 511.341 536.323C512.393 537.012 513.213 537.988 513.802 539.252C514.392 540.517 514.687 542.008 514.687 543.727C514.687 545.46 514.392 546.962 513.802 548.233C513.213 549.497 512.396 550.478 511.352 551.174C510.308 551.862 509.104 552.207 507.741 552.207C506.689 552.207 505.848 552.033 505.216 551.685C504.584 551.33 504.097 550.928 503.756 550.481C503.415 550.027 503.153 549.65 502.968 549.352H502.755V558.002H500.241ZM502.712 543.684C502.712 544.92 502.893 546.01 503.256 546.955C503.618 547.892 504.147 548.627 504.843 549.16C505.539 549.686 506.391 549.948 507.4 549.948C508.451 549.948 509.328 549.671 510.031 549.117C510.741 548.556 511.274 547.803 511.629 546.859C511.991 545.907 512.172 544.849 512.172 543.684C512.172 542.534 511.995 541.497 511.64 540.573C511.292 539.643 510.763 538.908 510.052 538.368C509.349 537.821 508.465 537.548 507.4 537.548C506.377 537.548 505.518 537.807 504.822 538.326C504.126 538.837 503.6 539.554 503.245 540.478C502.89 541.394 502.712 542.463 502.712 543.684ZM525.383 552.207C523.806 552.207 522.446 551.859 521.302 551.163C520.166 550.46 519.289 549.48 518.671 548.223C518.06 546.958 517.755 545.488 517.755 543.812C517.755 542.136 518.06 540.659 518.671 539.38C519.289 538.095 520.148 537.093 521.249 536.376C522.357 535.652 523.65 535.289 525.127 535.289C525.979 535.289 526.821 535.431 527.652 535.715C528.483 536 529.239 536.461 529.921 537.1C530.603 537.732 531.146 538.571 531.551 539.615C531.956 540.659 532.158 541.944 532.158 543.471V544.536H519.545V542.363H529.601C529.601 541.44 529.417 540.616 529.047 539.892C528.685 539.167 528.167 538.595 527.492 538.176C526.824 537.757 526.036 537.548 525.127 537.548C524.126 537.548 523.259 537.796 522.528 538.294C521.803 538.784 521.246 539.423 520.855 540.211C520.464 541 520.269 541.845 520.269 542.747V544.196C520.269 545.431 520.482 546.479 520.908 547.338C521.341 548.191 521.942 548.84 522.709 549.288C523.476 549.728 524.367 549.948 525.383 549.948C526.043 549.948 526.64 549.856 527.172 549.671C527.712 549.48 528.177 549.196 528.568 548.819C528.959 548.436 529.26 547.96 529.474 547.392L531.903 548.073C531.647 548.897 531.217 549.622 530.613 550.247C530.01 550.865 529.264 551.348 528.376 551.696C527.488 552.036 526.491 552.207 525.383 552.207ZM545.827 551.866V537.804H541.48C540.5 537.804 539.729 538.031 539.168 538.485C538.607 538.94 538.327 539.565 538.327 540.36C538.327 541.142 538.579 541.756 539.083 542.203C539.594 542.651 540.294 542.875 541.182 542.875H546.466V545.218H541.182C540.074 545.218 539.118 545.023 538.316 544.632C537.513 544.242 536.895 543.684 536.462 542.96C536.029 542.228 535.812 541.362 535.812 540.36C535.812 539.352 536.04 538.485 536.494 537.761C536.949 537.036 537.599 536.479 538.444 536.088C539.296 535.698 540.308 535.502 541.48 535.502H548.213V551.866H545.827ZM534.917 551.866L539.562 543.727H542.29L537.645 551.866H534.917Z" fill="white"/>
<path d="M324.702 444.289L311.321 426.647H309.659V444.289H297.812V400.653H309.659V417.101H311.193L323.722 400.653H338.636L322.017 421.619L339.574 444.289H324.702ZM347.554 444.289V400.653H366.474C369.798 400.653 372.589 401.1 374.848 401.995C377.121 402.89 378.832 404.154 379.983 405.788C381.148 407.421 381.73 409.346 381.73 411.562C381.73 413.167 381.375 414.63 380.665 415.951C379.969 417.272 378.989 418.38 377.724 419.275C376.46 420.155 374.983 420.766 373.293 421.107V421.533C375.168 421.604 376.872 422.08 378.406 422.961C379.94 423.827 381.162 425.028 382.071 426.562C382.98 428.082 383.435 429.871 383.435 431.931C383.435 434.317 382.81 436.441 381.56 438.302C380.324 440.163 378.562 441.626 376.275 442.691C373.989 443.756 371.261 444.289 368.094 444.289H347.554ZM359.4 434.829H364.94C366.929 434.829 368.42 434.459 369.415 433.721C370.409 432.968 370.906 431.86 370.906 430.397C370.906 429.374 370.672 428.508 370.203 427.798C369.734 427.087 369.067 426.548 368.2 426.178C367.348 425.809 366.318 425.624 365.111 425.624H359.4V434.829ZM359.4 418.295H364.258C365.295 418.295 366.212 418.131 367.007 417.805C367.802 417.478 368.42 417.009 368.861 416.398C369.315 415.773 369.543 415.013 369.543 414.119C369.543 412.769 369.06 411.739 368.094 411.029C367.128 410.305 365.906 409.942 364.429 409.942H359.4V418.295ZM403.767 444.289H390.983L405.387 400.653H421.58L435.983 444.289H423.199L413.654 412.67H413.313L403.767 444.289ZM401.381 427.073H425.415V435.937H401.381V427.073ZM443.537 454.772V435.17H446.605C447.628 434.545 448.551 433.664 449.375 432.528C450.213 431.391 450.923 429.765 451.506 427.648C452.102 425.532 452.543 422.698 452.827 419.147L454.276 400.653H485.128V435.17H489.73V454.772H478.31V444.289H454.958V454.772H443.537ZM460.156 435.17H473.708V410.198H464.929L464.247 419.147C464.048 421.817 463.743 424.154 463.331 426.157C462.933 428.146 462.458 429.878 461.904 431.356C461.364 432.819 460.781 434.09 460.156 435.17ZM498.536 444.289V400.653H517.371C520.61 400.653 523.444 401.292 525.873 402.57C528.302 403.849 530.191 405.646 531.54 407.961C532.89 410.276 533.564 412.982 533.564 416.079C533.564 419.204 532.868 421.91 531.476 424.197C530.098 426.484 528.16 428.245 525.66 429.481C523.174 430.717 520.269 431.334 516.945 431.334H505.695V422.13H514.559C515.951 422.13 517.137 421.888 518.117 421.405C519.111 420.908 519.871 420.205 520.397 419.296C520.937 418.387 521.206 417.315 521.206 416.079C521.206 414.829 520.937 413.763 520.397 412.883C519.871 411.988 519.111 411.306 518.117 410.837C517.137 410.354 515.951 410.113 514.559 410.113H510.383V444.289H498.536ZM548.597 444.289H535.813L550.216 400.653H566.409L580.813 444.289H568.029L558.483 412.67H558.142L548.597 444.289ZM546.211 427.073H570.245V435.937H546.211V427.073ZM583.115 410.198V400.653H621.041V410.198H607.916V444.289H596.24V410.198H583.115Z" fill="white"/>
</svg>
